M48
; DRILL file {KiCad 8.0.6} date 2025-01-14T21:12:59+0100
; FORMAT={-:-/ absolute / inch / decimal}
; #@! TF.CreationDate,2025-01-14T21:12:59+01:00
; #@! TF.GenerationSoftware,Kicad,Pcbnew,8.0.6
; #@! TF.FileFunction,Plated,1,2,PTH
FMAT,2
INCH
; #@! TA.AperFunction,Plated,PTH,ComponentDrill
T1C0.0157
; #@! TA.AperFunction,Plated,PTH,ComponentDrill
T2C0.0295
; #@! TA.AperFunction,Plated,PTH,ViaDrill
T3C0.0315
; #@! TA.AperFunction,Plated,PTH,ComponentDrill
T4C0.0315
; #@! TA.AperFunction,Plated,PTH,ComponentDrill
T5C0.0394
; #@! TA.AperFunction,Plated,PTH,ComponentDrill
T6C0.0402
; #@! TA.AperFunction,Plated,PTH,ComponentDrill
T7C0.0433
; #@! TA.AperFunction,Plated,PTH,ComponentDrill
T8C0.0866
%
G90
G05
T1
X2.8484Y-0.8169
X2.8484Y-3.6122
X2.8675Y-0.771
X2.8675Y-0.8629
X2.8675Y-3.5663
X2.8675Y-3.6581
X2.9134Y-0.752
X2.9134Y-0.8819
X2.9134Y-3.5472
X2.9134Y-3.6772
X2.9593Y-0.771
X2.9593Y-0.8629
X2.9593Y-3.5663
X2.9593Y-3.6581
X2.9783Y-0.8169
X2.9783Y-3.6122
X5.4075Y-0.8169
X5.4075Y-3.6122
X5.4265Y-0.771
X5.4265Y-0.8629
X5.4265Y-3.5663
X5.4265Y-3.6581
X5.4724Y-0.752
X5.4724Y-0.8819
X5.4724Y-3.5472
X5.4724Y-3.6772
X5.5184Y-0.771
X5.5184Y-0.8629
X5.5184Y-3.5663
X5.5184Y-3.6581
X5.5374Y-0.8169
X5.5374Y-3.6122
T2
X2.9724Y-1.0236
X2.9724Y-1.0933
X2.9724Y-1.1614
X3.6024Y-0.9358
X3.6024Y-1.0039
X3.6024Y-1.0736
X3.8638Y-0.9358
X3.8638Y-1.0039
X3.8638Y-1.0736
X3.9961Y-2.126
X3.9961Y-2.1957
X3.9961Y-2.2638
T3
X4.1929Y-1.9193
T4
X2.9724Y-1.3287
X2.9724Y-1.7287
X3.0709Y-1.9488
X3.0709Y-2.3488
X3.0874Y-0.935
X3.1661Y-0.8071
X3.2087Y-1.3248
X3.2087Y-1.7248
X3.2087Y-1.9555
X3.2087Y-2.3555
X3.3661Y-1.3248
X3.3661Y-1.7248
X3.4547Y-1.9488
X3.4874Y-0.935
X3.4917Y-1.5748
X3.5661Y-0.8071
X3.7567Y-0.8169
X3.7697Y-2.0768
X3.7697Y-2.4768
X3.8547Y-1.9488
X3.8917Y-1.5748
X4.1567Y-0.8169
X4.3374Y-0.8169
X4.5016Y-2.5098
X4.7374Y-0.8169
X4.9016Y-2.5098
X5.0098Y-2.4705
X5.1098Y-2.4705
X5.187Y-1.9063
X5.187Y-2.3063
X5.2098Y-2.4705
X5.3636Y-2.4756
X5.3636Y-2.7756
X5.4636Y-2.4756
X5.4636Y-2.7756
T5
X3.0512Y-3.0118
X3.0512Y-3.1118
X3.0512Y-3.2118
X3.6732Y-1.2205
X3.6732Y-1.7205
X3.7732Y-1.2205
X3.7732Y-1.7205
X3.8732Y-1.2205
X3.8732Y-1.7205
X3.9732Y-1.2205
X3.9732Y-1.7205
X4.0732Y-1.2205
X4.0732Y-1.7205
X4.1732Y-1.2205
X4.1732Y-1.7205
X4.6654Y-1.5748
X4.8031Y-1.378
X4.8031Y-1.7717
X4.8886Y-3.622
X4.9311Y-1.5748
X4.9508Y-2.1358
X4.9508Y-2.2343
X4.9886Y-3.622
X5.0886Y-3.622
T6
X3.1839Y-2.7602
X3.1839Y-3.4602
X3.1929Y-3.0102
X3.1929Y-3.1102
X3.1929Y-3.2102
X3.2839Y-2.7602
X3.2839Y-3.4602
X3.3839Y-2.7602
X3.3839Y-3.4602
X3.4839Y-2.7602
X3.4839Y-3.4602
X3.5839Y-2.7602
X3.5839Y-3.4602
X3.6839Y-2.7602
X3.6839Y-3.4602
X3.7839Y-2.7602
X3.7839Y-3.4602
X3.8839Y-2.7602
X3.8839Y-3.4602
X3.9839Y-2.7602
X3.9839Y-3.4602
X4.0839Y-2.7602
X4.0839Y-3.4602
X4.1839Y-2.7602
X4.1839Y-3.4602
X4.2839Y-2.7602
X4.2839Y-3.4602
X4.3839Y-2.7602
X4.3839Y-3.4602
X4.4839Y-2.7602
X4.4839Y-3.4602
X4.5839Y-2.7602
X4.5839Y-3.4602
X4.6839Y-2.7602
X4.6839Y-3.4602
X4.7839Y-2.7602
X4.7839Y-3.4602
X4.8839Y-2.7602
X4.8839Y-3.4602
X4.9839Y-2.7602
X4.9839Y-3.4602
X5.0839Y-2.7602
X5.0839Y-3.4602
T7
X3.3957Y-2.1358
X3.3957Y-2.3917
X3.5728Y-2.1358
X3.5728Y-2.3917
X4.3012Y-2.1358
X4.3012Y-2.3917
X4.4783Y-2.1358
X4.4783Y-2.3917
X5.3051Y-0.9843
X5.3051Y-1.2402
X5.3051Y-1.7717
X5.3051Y-2.0276
X5.4823Y-0.9843
X5.4823Y-1.2402
X5.4823Y-1.7717
X5.4823Y-2.0276
T8
X2.9134Y-0.8169
X2.9134Y-3.6122
X5.4724Y-0.8169
X5.4724Y-3.6122
M30
