%TF.GenerationSoftware,KiCad,Pcbnew,8.0.6*%
%TF.CreationDate,2025-01-14T21:11:08+01:00*%
%TF.ProjectId,kitchen_timer,6b697463-6865-46e5-9f74-696d65722e6b,1*%
%TF.SameCoordinates,Original*%
%TF.FileFunction,Legend,Top*%
%TF.FilePolarity,Positive*%
%FSLAX46Y46*%
G04 Gerber Fmt 4.6, Leading zero omitted, Abs format (unit mm)*
G04 Created by KiCad (PCBNEW 8.0.6) date 2025-01-14 21:11:08*
%MOMM*%
%LPD*%
G01*
G04 APERTURE LIST*
%ADD10C,0.100000*%
%ADD11C,0.150000*%
%ADD12C,0.120000*%
%ADD13C,0.000000*%
G04 APERTURE END LIST*
D10*
X112661027Y-23012475D02*
X113232455Y-23012475D01*
X112946741Y-24012475D02*
X112946741Y-23012475D01*
X113565789Y-24012475D02*
X113565789Y-23345808D01*
X113565789Y-23012475D02*
X113518170Y-23060094D01*
X113518170Y-23060094D02*
X113565789Y-23107713D01*
X113565789Y-23107713D02*
X113613408Y-23060094D01*
X113613408Y-23060094D02*
X113565789Y-23012475D01*
X113565789Y-23012475D02*
X113565789Y-23107713D01*
X114041979Y-24012475D02*
X114041979Y-23345808D01*
X114041979Y-23441046D02*
X114089598Y-23393427D01*
X114089598Y-23393427D02*
X114184836Y-23345808D01*
X114184836Y-23345808D02*
X114327693Y-23345808D01*
X114327693Y-23345808D02*
X114422931Y-23393427D01*
X114422931Y-23393427D02*
X114470550Y-23488665D01*
X114470550Y-23488665D02*
X114470550Y-24012475D01*
X114470550Y-23488665D02*
X114518169Y-23393427D01*
X114518169Y-23393427D02*
X114613407Y-23345808D01*
X114613407Y-23345808D02*
X114756264Y-23345808D01*
X114756264Y-23345808D02*
X114851503Y-23393427D01*
X114851503Y-23393427D02*
X114899122Y-23488665D01*
X114899122Y-23488665D02*
X114899122Y-24012475D01*
X115756264Y-23964856D02*
X115661026Y-24012475D01*
X115661026Y-24012475D02*
X115470550Y-24012475D01*
X115470550Y-24012475D02*
X115375312Y-23964856D01*
X115375312Y-23964856D02*
X115327693Y-23869617D01*
X115327693Y-23869617D02*
X115327693Y-23488665D01*
X115327693Y-23488665D02*
X115375312Y-23393427D01*
X115375312Y-23393427D02*
X115470550Y-23345808D01*
X115470550Y-23345808D02*
X115661026Y-23345808D01*
X115661026Y-23345808D02*
X115756264Y-23393427D01*
X115756264Y-23393427D02*
X115803883Y-23488665D01*
X115803883Y-23488665D02*
X115803883Y-23583903D01*
X115803883Y-23583903D02*
X115327693Y-23679141D01*
X116232455Y-23012475D02*
X116232455Y-23821998D01*
X116232455Y-23821998D02*
X116280074Y-23917236D01*
X116280074Y-23917236D02*
X116327693Y-23964856D01*
X116327693Y-23964856D02*
X116422931Y-24012475D01*
X116422931Y-24012475D02*
X116613407Y-24012475D01*
X116613407Y-24012475D02*
X116708645Y-23964856D01*
X116708645Y-23964856D02*
X116756264Y-23917236D01*
X116756264Y-23917236D02*
X116803883Y-23821998D01*
X116803883Y-23821998D02*
X116803883Y-23012475D01*
X117280074Y-23345808D02*
X117280074Y-24345808D01*
X117280074Y-23393427D02*
X117375312Y-23345808D01*
X117375312Y-23345808D02*
X117565788Y-23345808D01*
X117565788Y-23345808D02*
X117661026Y-23393427D01*
X117661026Y-23393427D02*
X117708645Y-23441046D01*
X117708645Y-23441046D02*
X117756264Y-23536284D01*
X117756264Y-23536284D02*
X117756264Y-23821998D01*
X117756264Y-23821998D02*
X117708645Y-23917236D01*
X117708645Y-23917236D02*
X117661026Y-23964856D01*
X117661026Y-23964856D02*
X117565788Y-24012475D01*
X117565788Y-24012475D02*
X117375312Y-24012475D01*
X117375312Y-24012475D02*
X117280074Y-23964856D01*
X112803884Y-25622419D02*
X112803884Y-24622419D01*
X113375312Y-25622419D02*
X112946741Y-25050990D01*
X113375312Y-24622419D02*
X112803884Y-25193847D01*
X113803884Y-25622419D02*
X113803884Y-24955752D01*
X113803884Y-24622419D02*
X113756265Y-24670038D01*
X113756265Y-24670038D02*
X113803884Y-24717657D01*
X113803884Y-24717657D02*
X113851503Y-24670038D01*
X113851503Y-24670038D02*
X113803884Y-24622419D01*
X113803884Y-24622419D02*
X113803884Y-24717657D01*
X114137217Y-24955752D02*
X114518169Y-24955752D01*
X114280074Y-24622419D02*
X114280074Y-25479561D01*
X114280074Y-25479561D02*
X114327693Y-25574800D01*
X114327693Y-25574800D02*
X114422931Y-25622419D01*
X114422931Y-25622419D02*
X114518169Y-25622419D01*
X115280074Y-25574800D02*
X115184836Y-25622419D01*
X115184836Y-25622419D02*
X114994360Y-25622419D01*
X114994360Y-25622419D02*
X114899122Y-25574800D01*
X114899122Y-25574800D02*
X114851503Y-25527180D01*
X114851503Y-25527180D02*
X114803884Y-25431942D01*
X114803884Y-25431942D02*
X114803884Y-25146228D01*
X114803884Y-25146228D02*
X114851503Y-25050990D01*
X114851503Y-25050990D02*
X114899122Y-25003371D01*
X114899122Y-25003371D02*
X114994360Y-24955752D01*
X114994360Y-24955752D02*
X115184836Y-24955752D01*
X115184836Y-24955752D02*
X115280074Y-25003371D01*
X115708646Y-25622419D02*
X115708646Y-24622419D01*
X116137217Y-25622419D02*
X116137217Y-25098609D01*
X116137217Y-25098609D02*
X116089598Y-25003371D01*
X116089598Y-25003371D02*
X115994360Y-24955752D01*
X115994360Y-24955752D02*
X115851503Y-24955752D01*
X115851503Y-24955752D02*
X115756265Y-25003371D01*
X115756265Y-25003371D02*
X115708646Y-25050990D01*
X116994360Y-25574800D02*
X116899122Y-25622419D01*
X116899122Y-25622419D02*
X116708646Y-25622419D01*
X116708646Y-25622419D02*
X116613408Y-25574800D01*
X116613408Y-25574800D02*
X116565789Y-25479561D01*
X116565789Y-25479561D02*
X116565789Y-25098609D01*
X116565789Y-25098609D02*
X116613408Y-25003371D01*
X116613408Y-25003371D02*
X116708646Y-24955752D01*
X116708646Y-24955752D02*
X116899122Y-24955752D01*
X116899122Y-24955752D02*
X116994360Y-25003371D01*
X116994360Y-25003371D02*
X117041979Y-25098609D01*
X117041979Y-25098609D02*
X117041979Y-25193847D01*
X117041979Y-25193847D02*
X116565789Y-25289085D01*
X117470551Y-24955752D02*
X117470551Y-25622419D01*
X117470551Y-25050990D02*
X117518170Y-25003371D01*
X117518170Y-25003371D02*
X117613408Y-24955752D01*
X117613408Y-24955752D02*
X117756265Y-24955752D01*
X117756265Y-24955752D02*
X117851503Y-25003371D01*
X117851503Y-25003371D02*
X117899122Y-25098609D01*
X117899122Y-25098609D02*
X117899122Y-25622419D01*
X118994361Y-24622419D02*
X119565789Y-24622419D01*
X119280075Y-25622419D02*
X119280075Y-24622419D01*
X119899123Y-25622419D02*
X119899123Y-24955752D01*
X119899123Y-24622419D02*
X119851504Y-24670038D01*
X119851504Y-24670038D02*
X119899123Y-24717657D01*
X119899123Y-24717657D02*
X119946742Y-24670038D01*
X119946742Y-24670038D02*
X119899123Y-24622419D01*
X119899123Y-24622419D02*
X119899123Y-24717657D01*
X120375313Y-25622419D02*
X120375313Y-24955752D01*
X120375313Y-25050990D02*
X120422932Y-25003371D01*
X120422932Y-25003371D02*
X120518170Y-24955752D01*
X120518170Y-24955752D02*
X120661027Y-24955752D01*
X120661027Y-24955752D02*
X120756265Y-25003371D01*
X120756265Y-25003371D02*
X120803884Y-25098609D01*
X120803884Y-25098609D02*
X120803884Y-25622419D01*
X120803884Y-25098609D02*
X120851503Y-25003371D01*
X120851503Y-25003371D02*
X120946741Y-24955752D01*
X120946741Y-24955752D02*
X121089598Y-24955752D01*
X121089598Y-24955752D02*
X121184837Y-25003371D01*
X121184837Y-25003371D02*
X121232456Y-25098609D01*
X121232456Y-25098609D02*
X121232456Y-25622419D01*
X122089598Y-25574800D02*
X121994360Y-25622419D01*
X121994360Y-25622419D02*
X121803884Y-25622419D01*
X121803884Y-25622419D02*
X121708646Y-25574800D01*
X121708646Y-25574800D02*
X121661027Y-25479561D01*
X121661027Y-25479561D02*
X121661027Y-25098609D01*
X121661027Y-25098609D02*
X121708646Y-25003371D01*
X121708646Y-25003371D02*
X121803884Y-24955752D01*
X121803884Y-24955752D02*
X121994360Y-24955752D01*
X121994360Y-24955752D02*
X122089598Y-25003371D01*
X122089598Y-25003371D02*
X122137217Y-25098609D01*
X122137217Y-25098609D02*
X122137217Y-25193847D01*
X122137217Y-25193847D02*
X121661027Y-25289085D01*
X122565789Y-25622419D02*
X122565789Y-24955752D01*
X122565789Y-25146228D02*
X122613408Y-25050990D01*
X122613408Y-25050990D02*
X122661027Y-25003371D01*
X122661027Y-25003371D02*
X122756265Y-24955752D01*
X122756265Y-24955752D02*
X122851503Y-24955752D01*
X113553884Y-27262475D02*
X113553884Y-26262475D01*
X114125312Y-27262475D02*
X113696741Y-26691046D01*
X114125312Y-26262475D02*
X113553884Y-26833903D01*
X114553884Y-27262475D02*
X114553884Y-26595808D01*
X114553884Y-26786284D02*
X114601503Y-26691046D01*
X114601503Y-26691046D02*
X114649122Y-26643427D01*
X114649122Y-26643427D02*
X114744360Y-26595808D01*
X114744360Y-26595808D02*
X114839598Y-26595808D01*
X115077694Y-26595808D02*
X115315789Y-27262475D01*
X115553884Y-26595808D02*
X115315789Y-27262475D01*
X115315789Y-27262475D02*
X115220551Y-27500570D01*
X115220551Y-27500570D02*
X115172932Y-27548189D01*
X115172932Y-27548189D02*
X115077694Y-27595808D01*
X115887218Y-27214856D02*
X115982456Y-27262475D01*
X115982456Y-27262475D02*
X116172932Y-27262475D01*
X116172932Y-27262475D02*
X116268170Y-27214856D01*
X116268170Y-27214856D02*
X116315789Y-27119617D01*
X116315789Y-27119617D02*
X116315789Y-27071998D01*
X116315789Y-27071998D02*
X116268170Y-26976760D01*
X116268170Y-26976760D02*
X116172932Y-26929141D01*
X116172932Y-26929141D02*
X116030075Y-26929141D01*
X116030075Y-26929141D02*
X115934837Y-26881522D01*
X115934837Y-26881522D02*
X115887218Y-26786284D01*
X115887218Y-26786284D02*
X115887218Y-26738665D01*
X115887218Y-26738665D02*
X115934837Y-26643427D01*
X115934837Y-26643427D02*
X116030075Y-26595808D01*
X116030075Y-26595808D02*
X116172932Y-26595808D01*
X116172932Y-26595808D02*
X116268170Y-26643427D01*
X115887218Y-26214856D02*
X116077694Y-26357713D01*
X116077694Y-26357713D02*
X116268170Y-26214856D01*
X116601504Y-26595808D02*
X116982456Y-26595808D01*
X116744361Y-26262475D02*
X116744361Y-27119617D01*
X116744361Y-27119617D02*
X116791980Y-27214856D01*
X116791980Y-27214856D02*
X116887218Y-27262475D01*
X116887218Y-27262475D02*
X116982456Y-27262475D01*
X117458647Y-27262475D02*
X117363409Y-27214856D01*
X117363409Y-27214856D02*
X117315790Y-27167236D01*
X117315790Y-27167236D02*
X117268171Y-27071998D01*
X117268171Y-27071998D02*
X117268171Y-26786284D01*
X117268171Y-26786284D02*
X117315790Y-26691046D01*
X117315790Y-26691046D02*
X117363409Y-26643427D01*
X117363409Y-26643427D02*
X117458647Y-26595808D01*
X117458647Y-26595808D02*
X117601504Y-26595808D01*
X117601504Y-26595808D02*
X117696742Y-26643427D01*
X117696742Y-26643427D02*
X117744361Y-26691046D01*
X117744361Y-26691046D02*
X117791980Y-26786284D01*
X117791980Y-26786284D02*
X117791980Y-27071998D01*
X117791980Y-27071998D02*
X117744361Y-27167236D01*
X117744361Y-27167236D02*
X117696742Y-27214856D01*
X117696742Y-27214856D02*
X117601504Y-27262475D01*
X117601504Y-27262475D02*
X117458647Y-27262475D01*
X118077695Y-26595808D02*
X118458647Y-26595808D01*
X118220552Y-27262475D02*
X118220552Y-26405332D01*
X118220552Y-26405332D02*
X118268171Y-26310094D01*
X118268171Y-26310094D02*
X118363409Y-26262475D01*
X118363409Y-26262475D02*
X118458647Y-26262475D01*
X119553886Y-27262475D02*
X119553886Y-26262475D01*
X119553886Y-26738665D02*
X120125314Y-26738665D01*
X120125314Y-27262475D02*
X120125314Y-26262475D01*
X120982457Y-27214856D02*
X120887219Y-27262475D01*
X120887219Y-27262475D02*
X120696743Y-27262475D01*
X120696743Y-27262475D02*
X120601505Y-27214856D01*
X120601505Y-27214856D02*
X120553886Y-27119617D01*
X120553886Y-27119617D02*
X120553886Y-26738665D01*
X120553886Y-26738665D02*
X120601505Y-26643427D01*
X120601505Y-26643427D02*
X120696743Y-26595808D01*
X120696743Y-26595808D02*
X120887219Y-26595808D01*
X120887219Y-26595808D02*
X120982457Y-26643427D01*
X120982457Y-26643427D02*
X121030076Y-26738665D01*
X121030076Y-26738665D02*
X121030076Y-26833903D01*
X121030076Y-26833903D02*
X120553886Y-26929141D01*
X121411029Y-27214856D02*
X121506267Y-27262475D01*
X121506267Y-27262475D02*
X121696743Y-27262475D01*
X121696743Y-27262475D02*
X121791981Y-27214856D01*
X121791981Y-27214856D02*
X121839600Y-27119617D01*
X121839600Y-27119617D02*
X121839600Y-27071998D01*
X121839600Y-27071998D02*
X121791981Y-26976760D01*
X121791981Y-26976760D02*
X121696743Y-26929141D01*
X121696743Y-26929141D02*
X121553886Y-26929141D01*
X121553886Y-26929141D02*
X121458648Y-26881522D01*
X121458648Y-26881522D02*
X121411029Y-26786284D01*
X121411029Y-26786284D02*
X121411029Y-26738665D01*
X121411029Y-26738665D02*
X121458648Y-26643427D01*
X121458648Y-26643427D02*
X121553886Y-26595808D01*
X121553886Y-26595808D02*
X121696743Y-26595808D01*
X121696743Y-26595808D02*
X121791981Y-26643427D01*
X113458646Y-28205752D02*
X113696741Y-28872419D01*
X113696741Y-28872419D02*
X113934836Y-28205752D01*
X114839598Y-28872419D02*
X114268170Y-28872419D01*
X114553884Y-28872419D02*
X114553884Y-27872419D01*
X114553884Y-27872419D02*
X114458646Y-28015276D01*
X114458646Y-28015276D02*
X114363408Y-28110514D01*
X114363408Y-28110514D02*
X114268170Y-28158133D01*
X115268170Y-28777180D02*
X115315789Y-28824800D01*
X115315789Y-28824800D02*
X115268170Y-28872419D01*
X115268170Y-28872419D02*
X115220551Y-28824800D01*
X115220551Y-28824800D02*
X115268170Y-28777180D01*
X115268170Y-28777180D02*
X115268170Y-28872419D01*
X115934836Y-27872419D02*
X116030074Y-27872419D01*
X116030074Y-27872419D02*
X116125312Y-27920038D01*
X116125312Y-27920038D02*
X116172931Y-27967657D01*
X116172931Y-27967657D02*
X116220550Y-28062895D01*
X116220550Y-28062895D02*
X116268169Y-28253371D01*
X116268169Y-28253371D02*
X116268169Y-28491466D01*
X116268169Y-28491466D02*
X116220550Y-28681942D01*
X116220550Y-28681942D02*
X116172931Y-28777180D01*
X116172931Y-28777180D02*
X116125312Y-28824800D01*
X116125312Y-28824800D02*
X116030074Y-28872419D01*
X116030074Y-28872419D02*
X115934836Y-28872419D01*
X115934836Y-28872419D02*
X115839598Y-28824800D01*
X115839598Y-28824800D02*
X115791979Y-28777180D01*
X115791979Y-28777180D02*
X115744360Y-28681942D01*
X115744360Y-28681942D02*
X115696741Y-28491466D01*
X115696741Y-28491466D02*
X115696741Y-28253371D01*
X115696741Y-28253371D02*
X115744360Y-28062895D01*
X115744360Y-28062895D02*
X115791979Y-27967657D01*
X115791979Y-27967657D02*
X115839598Y-27920038D01*
X115839598Y-27920038D02*
X115934836Y-27872419D01*
X117411027Y-27967657D02*
X117458646Y-27920038D01*
X117458646Y-27920038D02*
X117553884Y-27872419D01*
X117553884Y-27872419D02*
X117791979Y-27872419D01*
X117791979Y-27872419D02*
X117887217Y-27920038D01*
X117887217Y-27920038D02*
X117934836Y-27967657D01*
X117934836Y-27967657D02*
X117982455Y-28062895D01*
X117982455Y-28062895D02*
X117982455Y-28158133D01*
X117982455Y-28158133D02*
X117934836Y-28300990D01*
X117934836Y-28300990D02*
X117363408Y-28872419D01*
X117363408Y-28872419D02*
X117982455Y-28872419D01*
X118601503Y-27872419D02*
X118696741Y-27872419D01*
X118696741Y-27872419D02*
X118791979Y-27920038D01*
X118791979Y-27920038D02*
X118839598Y-27967657D01*
X118839598Y-27967657D02*
X118887217Y-28062895D01*
X118887217Y-28062895D02*
X118934836Y-28253371D01*
X118934836Y-28253371D02*
X118934836Y-28491466D01*
X118934836Y-28491466D02*
X118887217Y-28681942D01*
X118887217Y-28681942D02*
X118839598Y-28777180D01*
X118839598Y-28777180D02*
X118791979Y-28824800D01*
X118791979Y-28824800D02*
X118696741Y-28872419D01*
X118696741Y-28872419D02*
X118601503Y-28872419D01*
X118601503Y-28872419D02*
X118506265Y-28824800D01*
X118506265Y-28824800D02*
X118458646Y-28777180D01*
X118458646Y-28777180D02*
X118411027Y-28681942D01*
X118411027Y-28681942D02*
X118363408Y-28491466D01*
X118363408Y-28491466D02*
X118363408Y-28253371D01*
X118363408Y-28253371D02*
X118411027Y-28062895D01*
X118411027Y-28062895D02*
X118458646Y-27967657D01*
X118458646Y-27967657D02*
X118506265Y-27920038D01*
X118506265Y-27920038D02*
X118601503Y-27872419D01*
X119315789Y-27967657D02*
X119363408Y-27920038D01*
X119363408Y-27920038D02*
X119458646Y-27872419D01*
X119458646Y-27872419D02*
X119696741Y-27872419D01*
X119696741Y-27872419D02*
X119791979Y-27920038D01*
X119791979Y-27920038D02*
X119839598Y-27967657D01*
X119839598Y-27967657D02*
X119887217Y-28062895D01*
X119887217Y-28062895D02*
X119887217Y-28158133D01*
X119887217Y-28158133D02*
X119839598Y-28300990D01*
X119839598Y-28300990D02*
X119268170Y-28872419D01*
X119268170Y-28872419D02*
X119887217Y-28872419D01*
X120744360Y-28205752D02*
X120744360Y-28872419D01*
X120506265Y-27824800D02*
X120268170Y-28539085D01*
X120268170Y-28539085D02*
X120887217Y-28539085D01*
D11*
X104238095Y-64206819D02*
X104809523Y-64206819D01*
X104523809Y-65206819D02*
X104523809Y-64206819D01*
X105142857Y-65206819D02*
X105142857Y-64206819D01*
X105142857Y-64206819D02*
X105523809Y-64206819D01*
X105523809Y-64206819D02*
X105619047Y-64254438D01*
X105619047Y-64254438D02*
X105666666Y-64302057D01*
X105666666Y-64302057D02*
X105714285Y-64397295D01*
X105714285Y-64397295D02*
X105714285Y-64540152D01*
X105714285Y-64540152D02*
X105666666Y-64635390D01*
X105666666Y-64635390D02*
X105619047Y-64683009D01*
X105619047Y-64683009D02*
X105523809Y-64730628D01*
X105523809Y-64730628D02*
X105142857Y-64730628D01*
X106666666Y-65206819D02*
X106095238Y-65206819D01*
X106380952Y-65206819D02*
X106380952Y-64206819D01*
X106380952Y-64206819D02*
X106285714Y-64349676D01*
X106285714Y-64349676D02*
X106190476Y-64444914D01*
X106190476Y-64444914D02*
X106095238Y-64492533D01*
X83333333Y-21834819D02*
X83000000Y-21358628D01*
X82761905Y-21834819D02*
X82761905Y-20834819D01*
X82761905Y-20834819D02*
X83142857Y-20834819D01*
X83142857Y-20834819D02*
X83238095Y-20882438D01*
X83238095Y-20882438D02*
X83285714Y-20930057D01*
X83285714Y-20930057D02*
X83333333Y-21025295D01*
X83333333Y-21025295D02*
X83333333Y-21168152D01*
X83333333Y-21168152D02*
X83285714Y-21263390D01*
X83285714Y-21263390D02*
X83238095Y-21311009D01*
X83238095Y-21311009D02*
X83142857Y-21358628D01*
X83142857Y-21358628D02*
X82761905Y-21358628D01*
X84285714Y-21834819D02*
X83714286Y-21834819D01*
X84000000Y-21834819D02*
X84000000Y-20834819D01*
X84000000Y-20834819D02*
X83904762Y-20977676D01*
X83904762Y-20977676D02*
X83809524Y-21072914D01*
X83809524Y-21072914D02*
X83714286Y-21120533D01*
X80824819Y-54746666D02*
X80348628Y-55079999D01*
X80824819Y-55318094D02*
X79824819Y-55318094D01*
X79824819Y-55318094D02*
X79824819Y-54937142D01*
X79824819Y-54937142D02*
X79872438Y-54841904D01*
X79872438Y-54841904D02*
X79920057Y-54794285D01*
X79920057Y-54794285D02*
X80015295Y-54746666D01*
X80015295Y-54746666D02*
X80158152Y-54746666D01*
X80158152Y-54746666D02*
X80253390Y-54794285D01*
X80253390Y-54794285D02*
X80301009Y-54841904D01*
X80301009Y-54841904D02*
X80348628Y-54937142D01*
X80348628Y-54937142D02*
X80348628Y-55318094D01*
X79824819Y-53841904D02*
X79824819Y-54318094D01*
X79824819Y-54318094D02*
X80301009Y-54365713D01*
X80301009Y-54365713D02*
X80253390Y-54318094D01*
X80253390Y-54318094D02*
X80205771Y-54222856D01*
X80205771Y-54222856D02*
X80205771Y-53984761D01*
X80205771Y-53984761D02*
X80253390Y-53889523D01*
X80253390Y-53889523D02*
X80301009Y-53841904D01*
X80301009Y-53841904D02*
X80396247Y-53794285D01*
X80396247Y-53794285D02*
X80634342Y-53794285D01*
X80634342Y-53794285D02*
X80729580Y-53841904D01*
X80729580Y-53841904D02*
X80777200Y-53889523D01*
X80777200Y-53889523D02*
X80824819Y-53984761D01*
X80824819Y-53984761D02*
X80824819Y-54222856D01*
X80824819Y-54222856D02*
X80777200Y-54318094D01*
X80777200Y-54318094D02*
X80729580Y-54365713D01*
X133157200Y-29583332D02*
X133204819Y-29440475D01*
X133204819Y-29440475D02*
X133204819Y-29202380D01*
X133204819Y-29202380D02*
X133157200Y-29107142D01*
X133157200Y-29107142D02*
X133109580Y-29059523D01*
X133109580Y-29059523D02*
X133014342Y-29011904D01*
X133014342Y-29011904D02*
X132919104Y-29011904D01*
X132919104Y-29011904D02*
X132823866Y-29059523D01*
X132823866Y-29059523D02*
X132776247Y-29107142D01*
X132776247Y-29107142D02*
X132728628Y-29202380D01*
X132728628Y-29202380D02*
X132681009Y-29392856D01*
X132681009Y-29392856D02*
X132633390Y-29488094D01*
X132633390Y-29488094D02*
X132585771Y-29535713D01*
X132585771Y-29535713D02*
X132490533Y-29583332D01*
X132490533Y-29583332D02*
X132395295Y-29583332D01*
X132395295Y-29583332D02*
X132300057Y-29535713D01*
X132300057Y-29535713D02*
X132252438Y-29488094D01*
X132252438Y-29488094D02*
X132204819Y-29392856D01*
X132204819Y-29392856D02*
X132204819Y-29154761D01*
X132204819Y-29154761D02*
X132252438Y-29011904D01*
X132204819Y-28678570D02*
X133204819Y-28440475D01*
X133204819Y-28440475D02*
X132490533Y-28249999D01*
X132490533Y-28249999D02*
X133204819Y-28059523D01*
X133204819Y-28059523D02*
X132204819Y-27821428D01*
X133204819Y-26916666D02*
X133204819Y-27488094D01*
X133204819Y-27202380D02*
X132204819Y-27202380D01*
X132204819Y-27202380D02*
X132347676Y-27297618D01*
X132347676Y-27297618D02*
X132442914Y-27392856D01*
X132442914Y-27392856D02*
X132490533Y-27488094D01*
X73238095Y-88454819D02*
X73238095Y-87454819D01*
X73238095Y-87931009D02*
X73809523Y-87931009D01*
X73809523Y-88454819D02*
X73809523Y-87454819D01*
X74809523Y-88454819D02*
X74238095Y-88454819D01*
X74523809Y-88454819D02*
X74523809Y-87454819D01*
X74523809Y-87454819D02*
X74428571Y-87597676D01*
X74428571Y-87597676D02*
X74333333Y-87692914D01*
X74333333Y-87692914D02*
X74238095Y-87740533D01*
X118777142Y-66574819D02*
X118443809Y-66098628D01*
X118205714Y-66574819D02*
X118205714Y-65574819D01*
X118205714Y-65574819D02*
X118586666Y-65574819D01*
X118586666Y-65574819D02*
X118681904Y-65622438D01*
X118681904Y-65622438D02*
X118729523Y-65670057D01*
X118729523Y-65670057D02*
X118777142Y-65765295D01*
X118777142Y-65765295D02*
X118777142Y-65908152D01*
X118777142Y-65908152D02*
X118729523Y-66003390D01*
X118729523Y-66003390D02*
X118681904Y-66051009D01*
X118681904Y-66051009D02*
X118586666Y-66098628D01*
X118586666Y-66098628D02*
X118205714Y-66098628D01*
X119729523Y-66574819D02*
X119158095Y-66574819D01*
X119443809Y-66574819D02*
X119443809Y-65574819D01*
X119443809Y-65574819D02*
X119348571Y-65717676D01*
X119348571Y-65717676D02*
X119253333Y-65812914D01*
X119253333Y-65812914D02*
X119158095Y-65860533D01*
X120062857Y-65574819D02*
X120681904Y-65574819D01*
X120681904Y-65574819D02*
X120348571Y-65955771D01*
X120348571Y-65955771D02*
X120491428Y-65955771D01*
X120491428Y-65955771D02*
X120586666Y-66003390D01*
X120586666Y-66003390D02*
X120634285Y-66051009D01*
X120634285Y-66051009D02*
X120681904Y-66146247D01*
X120681904Y-66146247D02*
X120681904Y-66384342D01*
X120681904Y-66384342D02*
X120634285Y-66479580D01*
X120634285Y-66479580D02*
X120586666Y-66527200D01*
X120586666Y-66527200D02*
X120491428Y-66574819D01*
X120491428Y-66574819D02*
X120205714Y-66574819D01*
X120205714Y-66574819D02*
X120110476Y-66527200D01*
X120110476Y-66527200D02*
X120062857Y-66479580D01*
X85333333Y-18584819D02*
X85000000Y-18108628D01*
X84761905Y-18584819D02*
X84761905Y-17584819D01*
X84761905Y-17584819D02*
X85142857Y-17584819D01*
X85142857Y-17584819D02*
X85238095Y-17632438D01*
X85238095Y-17632438D02*
X85285714Y-17680057D01*
X85285714Y-17680057D02*
X85333333Y-17775295D01*
X85333333Y-17775295D02*
X85333333Y-17918152D01*
X85333333Y-17918152D02*
X85285714Y-18013390D01*
X85285714Y-18013390D02*
X85238095Y-18061009D01*
X85238095Y-18061009D02*
X85142857Y-18108628D01*
X85142857Y-18108628D02*
X84761905Y-18108628D01*
X86190476Y-17584819D02*
X86000000Y-17584819D01*
X86000000Y-17584819D02*
X85904762Y-17632438D01*
X85904762Y-17632438D02*
X85857143Y-17680057D01*
X85857143Y-17680057D02*
X85761905Y-17822914D01*
X85761905Y-17822914D02*
X85714286Y-18013390D01*
X85714286Y-18013390D02*
X85714286Y-18394342D01*
X85714286Y-18394342D02*
X85761905Y-18489580D01*
X85761905Y-18489580D02*
X85809524Y-18537200D01*
X85809524Y-18537200D02*
X85904762Y-18584819D01*
X85904762Y-18584819D02*
X86095238Y-18584819D01*
X86095238Y-18584819D02*
X86190476Y-18537200D01*
X86190476Y-18537200D02*
X86238095Y-18489580D01*
X86238095Y-18489580D02*
X86285714Y-18394342D01*
X86285714Y-18394342D02*
X86285714Y-18156247D01*
X86285714Y-18156247D02*
X86238095Y-18061009D01*
X86238095Y-18061009D02*
X86190476Y-18013390D01*
X86190476Y-18013390D02*
X86095238Y-17965771D01*
X86095238Y-17965771D02*
X85904762Y-17965771D01*
X85904762Y-17965771D02*
X85809524Y-18013390D01*
X85809524Y-18013390D02*
X85761905Y-18061009D01*
X85761905Y-18061009D02*
X85714286Y-18156247D01*
X84657200Y-58833332D02*
X84704819Y-58690475D01*
X84704819Y-58690475D02*
X84704819Y-58452380D01*
X84704819Y-58452380D02*
X84657200Y-58357142D01*
X84657200Y-58357142D02*
X84609580Y-58309523D01*
X84609580Y-58309523D02*
X84514342Y-58261904D01*
X84514342Y-58261904D02*
X84419104Y-58261904D01*
X84419104Y-58261904D02*
X84323866Y-58309523D01*
X84323866Y-58309523D02*
X84276247Y-58357142D01*
X84276247Y-58357142D02*
X84228628Y-58452380D01*
X84228628Y-58452380D02*
X84181009Y-58642856D01*
X84181009Y-58642856D02*
X84133390Y-58738094D01*
X84133390Y-58738094D02*
X84085771Y-58785713D01*
X84085771Y-58785713D02*
X83990533Y-58833332D01*
X83990533Y-58833332D02*
X83895295Y-58833332D01*
X83895295Y-58833332D02*
X83800057Y-58785713D01*
X83800057Y-58785713D02*
X83752438Y-58738094D01*
X83752438Y-58738094D02*
X83704819Y-58642856D01*
X83704819Y-58642856D02*
X83704819Y-58404761D01*
X83704819Y-58404761D02*
X83752438Y-58261904D01*
X83704819Y-57928570D02*
X84704819Y-57690475D01*
X84704819Y-57690475D02*
X83990533Y-57499999D01*
X83990533Y-57499999D02*
X84704819Y-57309523D01*
X84704819Y-57309523D02*
X83704819Y-57071428D01*
X83704819Y-56785713D02*
X83704819Y-56166666D01*
X83704819Y-56166666D02*
X84085771Y-56499999D01*
X84085771Y-56499999D02*
X84085771Y-56357142D01*
X84085771Y-56357142D02*
X84133390Y-56261904D01*
X84133390Y-56261904D02*
X84181009Y-56214285D01*
X84181009Y-56214285D02*
X84276247Y-56166666D01*
X84276247Y-56166666D02*
X84514342Y-56166666D01*
X84514342Y-56166666D02*
X84609580Y-56214285D01*
X84609580Y-56214285D02*
X84657200Y-56261904D01*
X84657200Y-56261904D02*
X84704819Y-56357142D01*
X84704819Y-56357142D02*
X84704819Y-56642856D01*
X84704819Y-56642856D02*
X84657200Y-56738094D01*
X84657200Y-56738094D02*
X84609580Y-56785713D01*
X138238095Y-88204819D02*
X138238095Y-87204819D01*
X138238095Y-87681009D02*
X138809523Y-87681009D01*
X138809523Y-88204819D02*
X138809523Y-87204819D01*
X139238095Y-87300057D02*
X139285714Y-87252438D01*
X139285714Y-87252438D02*
X139380952Y-87204819D01*
X139380952Y-87204819D02*
X139619047Y-87204819D01*
X139619047Y-87204819D02*
X139714285Y-87252438D01*
X139714285Y-87252438D02*
X139761904Y-87300057D01*
X139761904Y-87300057D02*
X139809523Y-87395295D01*
X139809523Y-87395295D02*
X139809523Y-87490533D01*
X139809523Y-87490533D02*
X139761904Y-87633390D01*
X139761904Y-87633390D02*
X139190476Y-88204819D01*
X139190476Y-88204819D02*
X139809523Y-88204819D01*
D10*
X98938095Y-47007419D02*
X98938095Y-47816942D01*
X98938095Y-47816942D02*
X98985714Y-47912180D01*
X98985714Y-47912180D02*
X99033333Y-47959800D01*
X99033333Y-47959800D02*
X99128571Y-48007419D01*
X99128571Y-48007419D02*
X99319047Y-48007419D01*
X99319047Y-48007419D02*
X99414285Y-47959800D01*
X99414285Y-47959800D02*
X99461904Y-47912180D01*
X99461904Y-47912180D02*
X99509523Y-47816942D01*
X99509523Y-47816942D02*
X99509523Y-47007419D01*
X100509523Y-48007419D02*
X99938095Y-48007419D01*
X100223809Y-48007419D02*
X100223809Y-47007419D01*
X100223809Y-47007419D02*
X100128571Y-47150276D01*
X100128571Y-47150276D02*
X100033333Y-47245514D01*
X100033333Y-47245514D02*
X99938095Y-47293133D01*
D11*
X72786666Y-73184819D02*
X72786666Y-73899104D01*
X72786666Y-73899104D02*
X72739047Y-74041961D01*
X72739047Y-74041961D02*
X72643809Y-74137200D01*
X72643809Y-74137200D02*
X72500952Y-74184819D01*
X72500952Y-74184819D02*
X72405714Y-74184819D01*
X73167619Y-73184819D02*
X73786666Y-73184819D01*
X73786666Y-73184819D02*
X73453333Y-73565771D01*
X73453333Y-73565771D02*
X73596190Y-73565771D01*
X73596190Y-73565771D02*
X73691428Y-73613390D01*
X73691428Y-73613390D02*
X73739047Y-73661009D01*
X73739047Y-73661009D02*
X73786666Y-73756247D01*
X73786666Y-73756247D02*
X73786666Y-73994342D01*
X73786666Y-73994342D02*
X73739047Y-74089580D01*
X73739047Y-74089580D02*
X73691428Y-74137200D01*
X73691428Y-74137200D02*
X73596190Y-74184819D01*
X73596190Y-74184819D02*
X73310476Y-74184819D01*
X73310476Y-74184819D02*
X73215238Y-74137200D01*
X73215238Y-74137200D02*
X73167619Y-74089580D01*
X107657200Y-58833332D02*
X107704819Y-58690475D01*
X107704819Y-58690475D02*
X107704819Y-58452380D01*
X107704819Y-58452380D02*
X107657200Y-58357142D01*
X107657200Y-58357142D02*
X107609580Y-58309523D01*
X107609580Y-58309523D02*
X107514342Y-58261904D01*
X107514342Y-58261904D02*
X107419104Y-58261904D01*
X107419104Y-58261904D02*
X107323866Y-58309523D01*
X107323866Y-58309523D02*
X107276247Y-58357142D01*
X107276247Y-58357142D02*
X107228628Y-58452380D01*
X107228628Y-58452380D02*
X107181009Y-58642856D01*
X107181009Y-58642856D02*
X107133390Y-58738094D01*
X107133390Y-58738094D02*
X107085771Y-58785713D01*
X107085771Y-58785713D02*
X106990533Y-58833332D01*
X106990533Y-58833332D02*
X106895295Y-58833332D01*
X106895295Y-58833332D02*
X106800057Y-58785713D01*
X106800057Y-58785713D02*
X106752438Y-58738094D01*
X106752438Y-58738094D02*
X106704819Y-58642856D01*
X106704819Y-58642856D02*
X106704819Y-58404761D01*
X106704819Y-58404761D02*
X106752438Y-58261904D01*
X106704819Y-57928570D02*
X107704819Y-57690475D01*
X107704819Y-57690475D02*
X106990533Y-57499999D01*
X106990533Y-57499999D02*
X107704819Y-57309523D01*
X107704819Y-57309523D02*
X106704819Y-57071428D01*
X107038152Y-56261904D02*
X107704819Y-56261904D01*
X106657200Y-56499999D02*
X107371485Y-56738094D01*
X107371485Y-56738094D02*
X107371485Y-56119047D01*
X99857142Y-18834819D02*
X99523809Y-18358628D01*
X99285714Y-18834819D02*
X99285714Y-17834819D01*
X99285714Y-17834819D02*
X99666666Y-17834819D01*
X99666666Y-17834819D02*
X99761904Y-17882438D01*
X99761904Y-17882438D02*
X99809523Y-17930057D01*
X99809523Y-17930057D02*
X99857142Y-18025295D01*
X99857142Y-18025295D02*
X99857142Y-18168152D01*
X99857142Y-18168152D02*
X99809523Y-18263390D01*
X99809523Y-18263390D02*
X99761904Y-18311009D01*
X99761904Y-18311009D02*
X99666666Y-18358628D01*
X99666666Y-18358628D02*
X99285714Y-18358628D01*
X100809523Y-18834819D02*
X100238095Y-18834819D01*
X100523809Y-18834819D02*
X100523809Y-17834819D01*
X100523809Y-17834819D02*
X100428571Y-17977676D01*
X100428571Y-17977676D02*
X100333333Y-18072914D01*
X100333333Y-18072914D02*
X100238095Y-18120533D01*
X101761904Y-18834819D02*
X101190476Y-18834819D01*
X101476190Y-18834819D02*
X101476190Y-17834819D01*
X101476190Y-17834819D02*
X101380952Y-17977676D01*
X101380952Y-17977676D02*
X101285714Y-18072914D01*
X101285714Y-18072914D02*
X101190476Y-18120533D01*
X133988095Y-20704819D02*
X133988095Y-19704819D01*
X133988095Y-20181009D02*
X134559523Y-20181009D01*
X134559523Y-20704819D02*
X134559523Y-19704819D01*
X134940476Y-19704819D02*
X135559523Y-19704819D01*
X135559523Y-19704819D02*
X135226190Y-20085771D01*
X135226190Y-20085771D02*
X135369047Y-20085771D01*
X135369047Y-20085771D02*
X135464285Y-20133390D01*
X135464285Y-20133390D02*
X135511904Y-20181009D01*
X135511904Y-20181009D02*
X135559523Y-20276247D01*
X135559523Y-20276247D02*
X135559523Y-20514342D01*
X135559523Y-20514342D02*
X135511904Y-20609580D01*
X135511904Y-20609580D02*
X135464285Y-20657200D01*
X135464285Y-20657200D02*
X135369047Y-20704819D01*
X135369047Y-20704819D02*
X135083333Y-20704819D01*
X135083333Y-20704819D02*
X134988095Y-20657200D01*
X134988095Y-20657200D02*
X134940476Y-20609580D01*
X114607142Y-18834819D02*
X114273809Y-18358628D01*
X114035714Y-18834819D02*
X114035714Y-17834819D01*
X114035714Y-17834819D02*
X114416666Y-17834819D01*
X114416666Y-17834819D02*
X114511904Y-17882438D01*
X114511904Y-17882438D02*
X114559523Y-17930057D01*
X114559523Y-17930057D02*
X114607142Y-18025295D01*
X114607142Y-18025295D02*
X114607142Y-18168152D01*
X114607142Y-18168152D02*
X114559523Y-18263390D01*
X114559523Y-18263390D02*
X114511904Y-18311009D01*
X114511904Y-18311009D02*
X114416666Y-18358628D01*
X114416666Y-18358628D02*
X114035714Y-18358628D01*
X115559523Y-18834819D02*
X114988095Y-18834819D01*
X115273809Y-18834819D02*
X115273809Y-17834819D01*
X115273809Y-17834819D02*
X115178571Y-17977676D01*
X115178571Y-17977676D02*
X115083333Y-18072914D01*
X115083333Y-18072914D02*
X114988095Y-18120533D01*
X116178571Y-17834819D02*
X116273809Y-17834819D01*
X116273809Y-17834819D02*
X116369047Y-17882438D01*
X116369047Y-17882438D02*
X116416666Y-17930057D01*
X116416666Y-17930057D02*
X116464285Y-18025295D01*
X116464285Y-18025295D02*
X116511904Y-18215771D01*
X116511904Y-18215771D02*
X116511904Y-18453866D01*
X116511904Y-18453866D02*
X116464285Y-18644342D01*
X116464285Y-18644342D02*
X116416666Y-18739580D01*
X116416666Y-18739580D02*
X116369047Y-18787200D01*
X116369047Y-18787200D02*
X116273809Y-18834819D01*
X116273809Y-18834819D02*
X116178571Y-18834819D01*
X116178571Y-18834819D02*
X116083333Y-18787200D01*
X116083333Y-18787200D02*
X116035714Y-18739580D01*
X116035714Y-18739580D02*
X115988095Y-18644342D01*
X115988095Y-18644342D02*
X115940476Y-18453866D01*
X115940476Y-18453866D02*
X115940476Y-18215771D01*
X115940476Y-18215771D02*
X115988095Y-18025295D01*
X115988095Y-18025295D02*
X116035714Y-17930057D01*
X116035714Y-17930057D02*
X116083333Y-17882438D01*
X116083333Y-17882438D02*
X116178571Y-17834819D01*
X135666667Y-54657200D02*
X135809524Y-54704819D01*
X135809524Y-54704819D02*
X136047619Y-54704819D01*
X136047619Y-54704819D02*
X136142857Y-54657200D01*
X136142857Y-54657200D02*
X136190476Y-54609580D01*
X136190476Y-54609580D02*
X136238095Y-54514342D01*
X136238095Y-54514342D02*
X136238095Y-54419104D01*
X136238095Y-54419104D02*
X136190476Y-54323866D01*
X136190476Y-54323866D02*
X136142857Y-54276247D01*
X136142857Y-54276247D02*
X136047619Y-54228628D01*
X136047619Y-54228628D02*
X135857143Y-54181009D01*
X135857143Y-54181009D02*
X135761905Y-54133390D01*
X135761905Y-54133390D02*
X135714286Y-54085771D01*
X135714286Y-54085771D02*
X135666667Y-53990533D01*
X135666667Y-53990533D02*
X135666667Y-53895295D01*
X135666667Y-53895295D02*
X135714286Y-53800057D01*
X135714286Y-53800057D02*
X135761905Y-53752438D01*
X135761905Y-53752438D02*
X135857143Y-53704819D01*
X135857143Y-53704819D02*
X136095238Y-53704819D01*
X136095238Y-53704819D02*
X136238095Y-53752438D01*
X136571429Y-53704819D02*
X136809524Y-54704819D01*
X136809524Y-54704819D02*
X137000000Y-53990533D01*
X137000000Y-53990533D02*
X137190476Y-54704819D01*
X137190476Y-54704819D02*
X137428572Y-53704819D01*
X137761905Y-53800057D02*
X137809524Y-53752438D01*
X137809524Y-53752438D02*
X137904762Y-53704819D01*
X137904762Y-53704819D02*
X138142857Y-53704819D01*
X138142857Y-53704819D02*
X138238095Y-53752438D01*
X138238095Y-53752438D02*
X138285714Y-53800057D01*
X138285714Y-53800057D02*
X138333333Y-53895295D01*
X138333333Y-53895295D02*
X138333333Y-53990533D01*
X138333333Y-53990533D02*
X138285714Y-54133390D01*
X138285714Y-54133390D02*
X137714286Y-54704819D01*
X137714286Y-54704819D02*
X138333333Y-54704819D01*
X79584819Y-54916666D02*
X79108628Y-55249999D01*
X79584819Y-55488094D02*
X78584819Y-55488094D01*
X78584819Y-55488094D02*
X78584819Y-55107142D01*
X78584819Y-55107142D02*
X78632438Y-55011904D01*
X78632438Y-55011904D02*
X78680057Y-54964285D01*
X78680057Y-54964285D02*
X78775295Y-54916666D01*
X78775295Y-54916666D02*
X78918152Y-54916666D01*
X78918152Y-54916666D02*
X79013390Y-54964285D01*
X79013390Y-54964285D02*
X79061009Y-55011904D01*
X79061009Y-55011904D02*
X79108628Y-55107142D01*
X79108628Y-55107142D02*
X79108628Y-55488094D01*
X78918152Y-54059523D02*
X79584819Y-54059523D01*
X78537200Y-54297618D02*
X79251485Y-54535713D01*
X79251485Y-54535713D02*
X79251485Y-53916666D01*
X92663333Y-47584819D02*
X92330000Y-47108628D01*
X92091905Y-47584819D02*
X92091905Y-46584819D01*
X92091905Y-46584819D02*
X92472857Y-46584819D01*
X92472857Y-46584819D02*
X92568095Y-46632438D01*
X92568095Y-46632438D02*
X92615714Y-46680057D01*
X92615714Y-46680057D02*
X92663333Y-46775295D01*
X92663333Y-46775295D02*
X92663333Y-46918152D01*
X92663333Y-46918152D02*
X92615714Y-47013390D01*
X92615714Y-47013390D02*
X92568095Y-47061009D01*
X92568095Y-47061009D02*
X92472857Y-47108628D01*
X92472857Y-47108628D02*
X92091905Y-47108628D01*
X93234762Y-47013390D02*
X93139524Y-46965771D01*
X93139524Y-46965771D02*
X93091905Y-46918152D01*
X93091905Y-46918152D02*
X93044286Y-46822914D01*
X93044286Y-46822914D02*
X93044286Y-46775295D01*
X93044286Y-46775295D02*
X93091905Y-46680057D01*
X93091905Y-46680057D02*
X93139524Y-46632438D01*
X93139524Y-46632438D02*
X93234762Y-46584819D01*
X93234762Y-46584819D02*
X93425238Y-46584819D01*
X93425238Y-46584819D02*
X93520476Y-46632438D01*
X93520476Y-46632438D02*
X93568095Y-46680057D01*
X93568095Y-46680057D02*
X93615714Y-46775295D01*
X93615714Y-46775295D02*
X93615714Y-46822914D01*
X93615714Y-46822914D02*
X93568095Y-46918152D01*
X93568095Y-46918152D02*
X93520476Y-46965771D01*
X93520476Y-46965771D02*
X93425238Y-47013390D01*
X93425238Y-47013390D02*
X93234762Y-47013390D01*
X93234762Y-47013390D02*
X93139524Y-47061009D01*
X93139524Y-47061009D02*
X93091905Y-47108628D01*
X93091905Y-47108628D02*
X93044286Y-47203866D01*
X93044286Y-47203866D02*
X93044286Y-47394342D01*
X93044286Y-47394342D02*
X93091905Y-47489580D01*
X93091905Y-47489580D02*
X93139524Y-47537200D01*
X93139524Y-47537200D02*
X93234762Y-47584819D01*
X93234762Y-47584819D02*
X93425238Y-47584819D01*
X93425238Y-47584819D02*
X93520476Y-47537200D01*
X93520476Y-47537200D02*
X93568095Y-47489580D01*
X93568095Y-47489580D02*
X93615714Y-47394342D01*
X93615714Y-47394342D02*
X93615714Y-47203866D01*
X93615714Y-47203866D02*
X93568095Y-47108628D01*
X93568095Y-47108628D02*
X93520476Y-47061009D01*
X93520476Y-47061009D02*
X93425238Y-47013390D01*
X129834819Y-54142857D02*
X129358628Y-54476190D01*
X129834819Y-54714285D02*
X128834819Y-54714285D01*
X128834819Y-54714285D02*
X128834819Y-54333333D01*
X128834819Y-54333333D02*
X128882438Y-54238095D01*
X128882438Y-54238095D02*
X128930057Y-54190476D01*
X128930057Y-54190476D02*
X129025295Y-54142857D01*
X129025295Y-54142857D02*
X129168152Y-54142857D01*
X129168152Y-54142857D02*
X129263390Y-54190476D01*
X129263390Y-54190476D02*
X129311009Y-54238095D01*
X129311009Y-54238095D02*
X129358628Y-54333333D01*
X129358628Y-54333333D02*
X129358628Y-54714285D01*
X129834819Y-53190476D02*
X129834819Y-53761904D01*
X129834819Y-53476190D02*
X128834819Y-53476190D01*
X128834819Y-53476190D02*
X128977676Y-53571428D01*
X128977676Y-53571428D02*
X129072914Y-53666666D01*
X129072914Y-53666666D02*
X129120533Y-53761904D01*
X129168152Y-52333333D02*
X129834819Y-52333333D01*
X128787200Y-52571428D02*
X129501485Y-52809523D01*
X129501485Y-52809523D02*
X129501485Y-52190476D01*
X76738095Y-19204819D02*
X76738095Y-18204819D01*
X76738095Y-18681009D02*
X77309523Y-18681009D01*
X77309523Y-19204819D02*
X77309523Y-18204819D01*
X78214285Y-18538152D02*
X78214285Y-19204819D01*
X77976190Y-18157200D02*
X77738095Y-18871485D01*
X77738095Y-18871485D02*
X78357142Y-18871485D01*
X78324819Y-39472857D02*
X77848628Y-39806190D01*
X78324819Y-40044285D02*
X77324819Y-40044285D01*
X77324819Y-40044285D02*
X77324819Y-39663333D01*
X77324819Y-39663333D02*
X77372438Y-39568095D01*
X77372438Y-39568095D02*
X77420057Y-39520476D01*
X77420057Y-39520476D02*
X77515295Y-39472857D01*
X77515295Y-39472857D02*
X77658152Y-39472857D01*
X77658152Y-39472857D02*
X77753390Y-39520476D01*
X77753390Y-39520476D02*
X77801009Y-39568095D01*
X77801009Y-39568095D02*
X77848628Y-39663333D01*
X77848628Y-39663333D02*
X77848628Y-40044285D01*
X78324819Y-38520476D02*
X78324819Y-39091904D01*
X78324819Y-38806190D02*
X77324819Y-38806190D01*
X77324819Y-38806190D02*
X77467676Y-38901428D01*
X77467676Y-38901428D02*
X77562914Y-38996666D01*
X77562914Y-38996666D02*
X77610533Y-39091904D01*
X77420057Y-38139523D02*
X77372438Y-38091904D01*
X77372438Y-38091904D02*
X77324819Y-37996666D01*
X77324819Y-37996666D02*
X77324819Y-37758571D01*
X77324819Y-37758571D02*
X77372438Y-37663333D01*
X77372438Y-37663333D02*
X77420057Y-37615714D01*
X77420057Y-37615714D02*
X77515295Y-37568095D01*
X77515295Y-37568095D02*
X77610533Y-37568095D01*
X77610533Y-37568095D02*
X77753390Y-37615714D01*
X77753390Y-37615714D02*
X78324819Y-38187142D01*
X78324819Y-38187142D02*
X78324819Y-37568095D01*
X98574819Y-57996666D02*
X98098628Y-58329999D01*
X98574819Y-58568094D02*
X97574819Y-58568094D01*
X97574819Y-58568094D02*
X97574819Y-58187142D01*
X97574819Y-58187142D02*
X97622438Y-58091904D01*
X97622438Y-58091904D02*
X97670057Y-58044285D01*
X97670057Y-58044285D02*
X97765295Y-57996666D01*
X97765295Y-57996666D02*
X97908152Y-57996666D01*
X97908152Y-57996666D02*
X98003390Y-58044285D01*
X98003390Y-58044285D02*
X98051009Y-58091904D01*
X98051009Y-58091904D02*
X98098628Y-58187142D01*
X98098628Y-58187142D02*
X98098628Y-58568094D01*
X98574819Y-57520475D02*
X98574819Y-57329999D01*
X98574819Y-57329999D02*
X98527200Y-57234761D01*
X98527200Y-57234761D02*
X98479580Y-57187142D01*
X98479580Y-57187142D02*
X98336723Y-57091904D01*
X98336723Y-57091904D02*
X98146247Y-57044285D01*
X98146247Y-57044285D02*
X97765295Y-57044285D01*
X97765295Y-57044285D02*
X97670057Y-57091904D01*
X97670057Y-57091904D02*
X97622438Y-57139523D01*
X97622438Y-57139523D02*
X97574819Y-57234761D01*
X97574819Y-57234761D02*
X97574819Y-57425237D01*
X97574819Y-57425237D02*
X97622438Y-57520475D01*
X97622438Y-57520475D02*
X97670057Y-57568094D01*
X97670057Y-57568094D02*
X97765295Y-57615713D01*
X97765295Y-57615713D02*
X98003390Y-57615713D01*
X98003390Y-57615713D02*
X98098628Y-57568094D01*
X98098628Y-57568094D02*
X98146247Y-57520475D01*
X98146247Y-57520475D02*
X98193866Y-57425237D01*
X98193866Y-57425237D02*
X98193866Y-57234761D01*
X98193866Y-57234761D02*
X98146247Y-57139523D01*
X98146247Y-57139523D02*
X98098628Y-57091904D01*
X98098628Y-57091904D02*
X98003390Y-57044285D01*
D12*
%TO.C,TP1*%
X104300000Y-65550000D02*
X106700000Y-65550000D01*
X104300000Y-67950000D02*
X104300000Y-65550000D01*
X106700000Y-65550000D02*
X106700000Y-67950000D01*
X106700000Y-67950000D02*
X104300000Y-67950000D01*
D13*
%TO.C,G\u002A\u002A\u002A*%
G36*
X106729346Y-72737580D02*
G01*
X107139437Y-72821219D01*
X107570258Y-72931861D01*
X107952797Y-73053556D01*
X107954166Y-73054054D01*
X108179126Y-73149525D01*
X108286863Y-73254349D01*
X108323498Y-73422517D01*
X108327414Y-73491003D01*
X108312872Y-73988442D01*
X108232198Y-74442298D01*
X108096026Y-74804920D01*
X108002622Y-74946667D01*
X107908530Y-75091720D01*
X107887487Y-75158334D01*
X107824645Y-75286824D01*
X107667725Y-75482510D01*
X107454146Y-75705897D01*
X107221324Y-75917491D01*
X107031743Y-76061575D01*
X106723153Y-76266538D01*
X107019409Y-76502926D01*
X107261566Y-76762643D01*
X107480899Y-77111935D01*
X107644388Y-77486658D01*
X107719018Y-77822668D01*
X107720506Y-77864984D01*
X107768612Y-78083491D01*
X107928233Y-78316160D01*
X108059297Y-78452981D01*
X108284205Y-78716083D01*
X108473024Y-79010902D01*
X108535351Y-79144577D01*
X108637546Y-79598193D01*
X108632600Y-80089337D01*
X108526318Y-80552242D01*
X108385907Y-80837844D01*
X108245510Y-81121586D01*
X108122709Y-81496600D01*
X108064642Y-81755667D01*
X107985146Y-82116149D01*
X107884363Y-82463864D01*
X107796637Y-82694112D01*
X107699941Y-82887751D01*
X107595765Y-83050503D01*
X107462432Y-83198713D01*
X107278270Y-83348727D01*
X107021601Y-83516891D01*
X106670753Y-83719550D01*
X106204049Y-83973051D01*
X105853600Y-84159427D01*
X105583194Y-84315588D01*
X105363193Y-84465560D01*
X105260934Y-84556231D01*
X104975299Y-84787828D01*
X104580056Y-84959187D01*
X104127839Y-85058565D01*
X103671279Y-85074217D01*
X103276333Y-84999081D01*
X103044927Y-84889068D01*
X102785574Y-84724505D01*
X102723076Y-84677769D01*
X102470381Y-84502691D01*
X102154399Y-84312859D01*
X101975753Y-84216956D01*
X101458313Y-83934977D01*
X101363350Y-83875619D01*
X102609454Y-83875619D01*
X102644162Y-83993024D01*
X102781235Y-84162222D01*
X102979110Y-84345795D01*
X103196221Y-84506329D01*
X103391004Y-84606407D01*
X103434371Y-84618208D01*
X103896360Y-84662811D01*
X104311353Y-84617146D01*
X104529371Y-84540001D01*
X104787505Y-84381711D01*
X105024250Y-84189769D01*
X105197710Y-84002923D01*
X105265989Y-83859927D01*
X105266000Y-83858667D01*
X105187805Y-83721876D01*
X104976731Y-83608944D01*
X104668045Y-83523709D01*
X104297013Y-83470003D01*
X103898901Y-83451664D01*
X103508976Y-83472525D01*
X103162504Y-83536421D01*
X102965382Y-83608486D01*
X102756969Y-83730994D01*
X102624336Y-83849696D01*
X102609454Y-83875619D01*
X101363350Y-83875619D01*
X100989858Y-83642162D01*
X100599366Y-83359021D01*
X100315810Y-83106063D01*
X100196018Y-82957210D01*
X100085829Y-82740542D01*
X99950351Y-82418983D01*
X99813116Y-82049787D01*
X99766348Y-81911794D01*
X99633901Y-81535770D01*
X100281299Y-81535770D01*
X100286490Y-81874799D01*
X100395645Y-82405722D01*
X100636362Y-82834709D01*
X101004288Y-83154804D01*
X101131580Y-83224995D01*
X101486528Y-83358481D01*
X101806836Y-83402241D01*
X102049576Y-83352787D01*
X102116400Y-83305067D01*
X102197359Y-83124056D01*
X102217471Y-82846016D01*
X102180634Y-82530384D01*
X102090751Y-82236595D01*
X102039717Y-82136667D01*
X101737029Y-81718898D01*
X102558059Y-81718898D01*
X102625884Y-82013530D01*
X102797872Y-82329980D01*
X103032113Y-82604414D01*
X103235275Y-82750369D01*
X103624201Y-82873487D01*
X104051486Y-82895267D01*
X104450918Y-82817652D01*
X104583564Y-82752608D01*
X105528248Y-82752608D01*
X105541477Y-83062282D01*
X105653047Y-83273619D01*
X105879383Y-83386189D01*
X106197848Y-83386634D01*
X106574987Y-83276418D01*
X106680903Y-83228666D01*
X107086392Y-82946885D01*
X107386274Y-82564002D01*
X107563168Y-82116562D01*
X107599693Y-81641105D01*
X107555895Y-81389133D01*
X107417468Y-81080315D01*
X107212406Y-80925841D01*
X106944298Y-80925972D01*
X106616735Y-81080968D01*
X106332339Y-81300641D01*
X106025834Y-81628623D01*
X105781960Y-82002278D01*
X105612254Y-82388107D01*
X105528248Y-82752608D01*
X104583564Y-82752608D01*
X104674194Y-82708167D01*
X105016431Y-82419805D01*
X105211050Y-82106641D01*
X105279384Y-81732556D01*
X105280111Y-81682428D01*
X105208620Y-81224000D01*
X104996174Y-80857509D01*
X104645816Y-80588173D01*
X104640970Y-80585647D01*
X104200321Y-80440981D01*
X103750643Y-80439283D01*
X103328969Y-80569387D01*
X102972335Y-80820127D01*
X102726007Y-81162985D01*
X102621400Y-81424304D01*
X102562740Y-81658800D01*
X102558059Y-81718898D01*
X101737029Y-81718898D01*
X101700523Y-81668513D01*
X101331893Y-81336851D01*
X100949924Y-81153966D01*
X100708571Y-81120667D01*
X100477444Y-81158982D01*
X100339390Y-81289543D01*
X100281299Y-81535770D01*
X99633901Y-81535770D01*
X99627808Y-81518472D01*
X99476050Y-81131088D01*
X99338022Y-80817365D01*
X99302667Y-80746484D01*
X99114524Y-80217708D01*
X99095741Y-79789195D01*
X99520562Y-79789195D01*
X99547207Y-80219860D01*
X99686652Y-80610137D01*
X99823744Y-80802713D01*
X99964280Y-80892395D01*
X100093619Y-80829715D01*
X100218132Y-80608555D01*
X100312732Y-80333155D01*
X100377766Y-80030411D01*
X100419615Y-79668569D01*
X100431241Y-79416507D01*
X101032983Y-79416507D01*
X101103389Y-79860919D01*
X101296699Y-80210796D01*
X101587229Y-80452816D01*
X101949296Y-80573658D01*
X102357214Y-80560000D01*
X102785302Y-80398520D01*
X102851370Y-80359674D01*
X103178169Y-80079451D01*
X103412115Y-79721510D01*
X103550165Y-79319825D01*
X103588807Y-78913314D01*
X104259118Y-78913314D01*
X104336152Y-79366676D01*
X104369955Y-79463004D01*
X104599340Y-79883938D01*
X104913798Y-80211064D01*
X105283201Y-80429758D01*
X105677425Y-80525396D01*
X106066343Y-80483354D01*
X106278627Y-80389524D01*
X106577532Y-80119353D01*
X106749663Y-79745119D01*
X106790000Y-79403443D01*
X106720794Y-78899984D01*
X106720576Y-78899542D01*
X107303357Y-78899542D01*
X107309670Y-79220655D01*
X107336487Y-79583726D01*
X107380726Y-79947176D01*
X107439305Y-80269425D01*
X107509141Y-80508893D01*
X107509977Y-80510954D01*
X107643686Y-80759760D01*
X107778927Y-80840429D01*
X107924087Y-80753235D01*
X108071293Y-80529321D01*
X108188344Y-80181728D01*
X108225244Y-79774801D01*
X108180037Y-79386055D01*
X108105374Y-79179214D01*
X107963957Y-78971356D01*
X107774901Y-78772298D01*
X107580139Y-78617685D01*
X107421604Y-78543163D01*
X107364575Y-78549514D01*
X107320632Y-78661969D01*
X107303357Y-78899542D01*
X106720576Y-78899542D01*
X106505212Y-78463486D01*
X106207172Y-78133961D01*
X105821145Y-77873930D01*
X105433229Y-77765032D01*
X105066104Y-77790862D01*
X104742450Y-77935012D01*
X104484947Y-78181075D01*
X104316276Y-78512645D01*
X104259118Y-78913314D01*
X103588807Y-78913314D01*
X103589277Y-78908369D01*
X103526409Y-78521115D01*
X103358516Y-78192037D01*
X103082558Y-77955109D01*
X103067438Y-77947100D01*
X102647508Y-77814632D01*
X102229480Y-77831998D01*
X101838192Y-77981259D01*
X101498481Y-78244475D01*
X101235183Y-78603709D01*
X101073138Y-79041020D01*
X101032983Y-79416507D01*
X100431241Y-79416507D01*
X100436684Y-79298512D01*
X100427375Y-78971123D01*
X100390092Y-78737283D01*
X100364687Y-78677570D01*
X100287293Y-78613572D01*
X100162692Y-78651655D01*
X100064773Y-78711670D01*
X99784610Y-78989421D01*
X99601451Y-79363823D01*
X99520562Y-79789195D01*
X99095741Y-79789195D01*
X99091109Y-79683513D01*
X99229302Y-79160854D01*
X99525982Y-78666691D01*
X99726785Y-78441570D01*
X99923888Y-78205658D01*
X100007923Y-77980357D01*
X100018526Y-77837011D01*
X100022592Y-77814462D01*
X100440000Y-77814462D01*
X100458704Y-77992930D01*
X100532341Y-78058152D01*
X100687197Y-78012916D01*
X100938119Y-77867237D01*
X101179882Y-77695552D01*
X101456782Y-77470005D01*
X101737652Y-77219957D01*
X101929919Y-77034118D01*
X102767119Y-77034118D01*
X102930594Y-77272447D01*
X103064666Y-77378264D01*
X103234364Y-77479357D01*
X103404982Y-77536339D01*
X103628448Y-77558264D01*
X103956690Y-77554182D01*
X104052729Y-77550506D01*
X104414834Y-77528991D01*
X104654607Y-77492168D01*
X104819015Y-77427992D01*
X104955028Y-77324415D01*
X104962896Y-77317075D01*
X105110787Y-77141246D01*
X105180526Y-76985775D01*
X105181333Y-76973082D01*
X105116190Y-76818810D01*
X104950310Y-76622690D01*
X104843187Y-76529946D01*
X105350666Y-76529946D01*
X105413522Y-76642317D01*
X105582435Y-76830769D01*
X105827926Y-77069876D01*
X106120515Y-77334214D01*
X106430722Y-77598357D01*
X106729066Y-77836882D01*
X106986070Y-78024362D01*
X107172251Y-78135373D01*
X107234500Y-78154657D01*
X107278784Y-78082934D01*
X107297977Y-77906001D01*
X107298000Y-77899129D01*
X107218302Y-77485030D01*
X106997360Y-77093993D01*
X106662397Y-76766164D01*
X106433539Y-76624324D01*
X106218925Y-76546025D01*
X105954762Y-76490971D01*
X105690453Y-76463467D01*
X105475401Y-76467820D01*
X105359008Y-76508334D01*
X105350666Y-76529946D01*
X104843187Y-76529946D01*
X104728013Y-76430232D01*
X104530732Y-76305012D01*
X104280489Y-76235666D01*
X103942888Y-76213303D01*
X103592857Y-76236560D01*
X103305322Y-76304070D01*
X103250762Y-76328332D01*
X102929512Y-76549033D01*
X102767528Y-76788638D01*
X102767119Y-77034118D01*
X101929919Y-77034118D01*
X101991325Y-76974765D01*
X102186632Y-76763789D01*
X102292407Y-76616387D01*
X102302666Y-76581880D01*
X102228515Y-76504630D01*
X102039481Y-76466934D01*
X101785693Y-76470335D01*
X101517278Y-76516374D01*
X101398011Y-76554053D01*
X101042815Y-76759256D01*
X100741123Y-77063997D01*
X100528518Y-77421461D01*
X100440585Y-77784833D01*
X100440000Y-77814462D01*
X100022592Y-77814462D01*
X100100943Y-77379927D01*
X100329736Y-76929162D01*
X100680766Y-76527721D01*
X100904337Y-76318965D01*
X101009439Y-76196312D01*
X101008782Y-76138782D01*
X100924483Y-76125333D01*
X100785767Y-76068903D01*
X100674740Y-75977167D01*
X100513604Y-75810672D01*
X100423090Y-75718934D01*
X100166055Y-75438558D01*
X99991107Y-75178467D01*
X99888593Y-74968726D01*
X99774488Y-74712918D01*
X99674159Y-74493126D01*
X99658144Y-74458929D01*
X99595309Y-74240565D01*
X99562999Y-73952463D01*
X99560409Y-73647369D01*
X99577933Y-73468092D01*
X99894775Y-73468092D01*
X99941532Y-73577768D01*
X99952449Y-73596395D01*
X100015959Y-73740060D01*
X99969725Y-73807871D01*
X99946975Y-73817182D01*
X99899311Y-73880380D01*
X99978937Y-74008870D01*
X100025233Y-74060120D01*
X100144803Y-74197548D01*
X100149449Y-74252913D01*
X100059000Y-74262667D01*
X99966691Y-74275839D01*
X99982323Y-74338785D01*
X100101333Y-74474334D01*
X100219064Y-74624110D01*
X100203858Y-74685970D01*
X100179591Y-74689045D01*
X100153296Y-74734339D01*
X100254438Y-74850241D01*
X100301500Y-74890434D01*
X100449735Y-75035495D01*
X100454804Y-75116227D01*
X100428500Y-75130288D01*
X100401087Y-75187181D01*
X100535293Y-75276069D01*
X100549104Y-75282647D01*
X100701930Y-75390003D01*
X100745548Y-75496528D01*
X100744436Y-75499748D01*
X100786527Y-75593817D01*
X100964104Y-75663204D01*
X101128432Y-75717948D01*
X101130312Y-75777182D01*
X101113296Y-75789161D01*
X101097008Y-75848197D01*
X101248129Y-75902970D01*
X101312950Y-75916242D01*
X101500553Y-75970916D01*
X101580402Y-76034300D01*
X101577262Y-76049950D01*
X101598951Y-76110230D01*
X101746522Y-76121379D01*
X101984684Y-76086205D01*
X102278145Y-76007512D01*
X102330933Y-75990028D01*
X102676008Y-75822252D01*
X102900516Y-75605322D01*
X102980000Y-75364546D01*
X102910305Y-75235792D01*
X102718317Y-75044829D01*
X102429676Y-74811841D01*
X102070025Y-74557014D01*
X101665004Y-74300533D01*
X101521990Y-74216809D01*
X101257697Y-74060045D01*
X101066687Y-73936448D01*
X100982333Y-73867927D01*
X100981661Y-73862116D01*
X101075091Y-73875562D01*
X101281161Y-73955725D01*
X101565369Y-74085515D01*
X101893219Y-74247839D01*
X102230209Y-74425604D01*
X102541841Y-74601720D01*
X102793616Y-74759093D01*
X102797602Y-74761795D01*
X103307420Y-75108006D01*
X103482376Y-74885585D01*
X103604998Y-74683367D01*
X103657310Y-74505166D01*
X103657333Y-74502529D01*
X103654845Y-74487650D01*
X104250000Y-74487650D01*
X104310315Y-74773641D01*
X104419251Y-74939918D01*
X104518257Y-75029633D01*
X104606630Y-75053045D01*
X104729994Y-75000143D01*
X104933970Y-74860918D01*
X105002110Y-74812022D01*
X105214085Y-74675345D01*
X105502395Y-74510031D01*
X105832707Y-74333218D01*
X106170686Y-74162045D01*
X106481999Y-74013651D01*
X106732311Y-73905174D01*
X106887290Y-73853752D01*
X106918813Y-73855259D01*
X106867321Y-73906953D01*
X106702697Y-74010120D01*
X106509811Y-74116169D01*
X106245986Y-74269345D01*
X105935934Y-74471625D01*
X105613234Y-74698168D01*
X105311465Y-74924135D01*
X105064209Y-75124684D01*
X104905045Y-75274975D01*
X104865061Y-75332852D01*
X104897898Y-75480830D01*
X105044020Y-75663430D01*
X105263698Y-75842749D01*
X105517200Y-75980881D01*
X105562333Y-75998085D01*
X105873521Y-76087522D01*
X106117911Y-76118737D01*
X106260133Y-76089307D01*
X106282000Y-76047394D01*
X106355002Y-75976880D01*
X106531179Y-75914744D01*
X106536738Y-75913505D01*
X106699241Y-75854182D01*
X106747059Y-75786343D01*
X106744942Y-75782260D01*
X106779769Y-75709877D01*
X106913537Y-75652970D01*
X107073924Y-75577765D01*
X107128666Y-75494745D01*
X107197948Y-75388582D01*
X107357084Y-75286440D01*
X107502558Y-75198063D01*
X107494277Y-75127651D01*
X107475461Y-75114357D01*
X107428367Y-75040234D01*
X107522183Y-74937474D01*
X107559435Y-74910455D01*
X107680573Y-74794912D01*
X107694284Y-74715395D01*
X107704395Y-74620804D01*
X107809124Y-74471221D01*
X107819984Y-74459448D01*
X107937221Y-74324659D01*
X107939238Y-74271501D01*
X107848333Y-74262667D01*
X107756024Y-74249495D01*
X107771656Y-74186549D01*
X107890666Y-74051000D01*
X108011539Y-73909013D01*
X108015532Y-73849309D01*
X107944779Y-73839334D01*
X107847903Y-73811726D01*
X107874561Y-73700830D01*
X107887687Y-73675566D01*
X107962786Y-73506186D01*
X107923946Y-73432843D01*
X107745121Y-73416083D01*
X107716336Y-73416000D01*
X107537196Y-73391530D01*
X107516225Y-73320721D01*
X107499902Y-73260691D01*
X107335346Y-73254513D01*
X107267222Y-73261387D01*
X107041565Y-73264186D01*
X106960046Y-73200106D01*
X106959333Y-73189428D01*
X106918720Y-73124391D01*
X106773955Y-73152472D01*
X106738002Y-73165674D01*
X106585636Y-73211520D01*
X106551215Y-73172330D01*
X106569629Y-73111819D01*
X106580006Y-73015950D01*
X106474013Y-73034951D01*
X106473460Y-73035179D01*
X106202853Y-73134149D01*
X106070445Y-73149599D01*
X106067556Y-73082275D01*
X106074985Y-73069504D01*
X106074158Y-73021565D01*
X105950555Y-73080677D01*
X105902053Y-73111485D01*
X105717883Y-73208080D01*
X105629554Y-73187715D01*
X105621380Y-73169809D01*
X105555245Y-73125524D01*
X105426552Y-73212280D01*
X105305308Y-73298503D01*
X105266187Y-73253950D01*
X105266000Y-73245031D01*
X105218123Y-73208902D01*
X105080848Y-73306611D01*
X105065928Y-73320440D01*
X104896864Y-73443935D01*
X104763115Y-73484124D01*
X104759283Y-73483365D01*
X104653120Y-73536592D01*
X104525525Y-73706146D01*
X104400262Y-73945163D01*
X104301097Y-74206780D01*
X104251795Y-74444135D01*
X104250000Y-74487650D01*
X103654845Y-74487650D01*
X103620565Y-74282604D01*
X103526045Y-74026827D01*
X103397453Y-73776917D01*
X103258465Y-73574590D01*
X103132760Y-73461563D01*
X103064666Y-73458334D01*
X102969517Y-73431733D01*
X102849382Y-73327336D01*
X102720120Y-73220201D01*
X102637548Y-73253351D01*
X102631569Y-73262466D01*
X102549869Y-73312716D01*
X102417677Y-73231553D01*
X102401283Y-73216958D01*
X102269905Y-73124312D01*
X102203835Y-73160439D01*
X102196817Y-73177991D01*
X102137386Y-73233580D01*
X102016820Y-73162981D01*
X101985150Y-73135658D01*
X101841604Y-73045318D01*
X101780519Y-73077440D01*
X101700779Y-73130405D01*
X101521791Y-73086252D01*
X101365591Y-73039593D01*
X101327926Y-73075644D01*
X101340682Y-73119581D01*
X101341979Y-73194180D01*
X101236020Y-73193084D01*
X101130497Y-73165776D01*
X100956922Y-73129274D01*
X100907955Y-73165167D01*
X100918682Y-73207722D01*
X100911815Y-73278676D01*
X100791983Y-73290808D01*
X100645984Y-73271677D01*
X100439916Y-73251895D01*
X100377437Y-73286789D01*
X100389499Y-73318119D01*
X100371237Y-73387982D01*
X100197345Y-73415345D01*
X100147945Y-73416000D01*
X99952848Y-73424072D01*
X99894775Y-73468092D01*
X99577933Y-73468092D01*
X99586736Y-73378030D01*
X99641174Y-73197194D01*
X99678000Y-73156804D01*
X99965902Y-73036256D01*
X100359167Y-72912769D01*
X100794978Y-72803157D01*
X101210521Y-72724237D01*
X101371333Y-72703508D01*
X101646310Y-72699504D01*
X101985704Y-72728232D01*
X102335860Y-72780998D01*
X102643127Y-72849112D01*
X102853852Y-72923881D01*
X102895333Y-72950402D01*
X103083664Y-73064782D01*
X103203370Y-73112354D01*
X103364268Y-73222231D01*
X103554149Y-73437208D01*
X103734406Y-73707126D01*
X103860655Y-73966334D01*
X103908707Y-74052744D01*
X103966332Y-74027003D01*
X104059423Y-73870587D01*
X104097328Y-73797000D01*
X104300834Y-73454909D01*
X104507493Y-73208723D01*
X104692484Y-73086024D01*
X104744925Y-73077334D01*
X104910816Y-73024817D01*
X105005333Y-72960670D01*
X105167807Y-72882436D01*
X105444434Y-72806609D01*
X105780216Y-72743522D01*
X106120157Y-72703512D01*
X106409000Y-72696897D01*
X106729346Y-72737580D01*
G37*
D12*
%TO.C,R1*%
X79460000Y-23750000D02*
X80230000Y-23750000D01*
X80230000Y-22380000D02*
X80230000Y-25120000D01*
X80230000Y-25120000D02*
X86770000Y-25120000D01*
X86770000Y-22380000D02*
X80230000Y-22380000D01*
X86770000Y-25120000D02*
X86770000Y-22380000D01*
X87540000Y-23750000D02*
X86770000Y-23750000D01*
%TO.C,R5*%
X76630000Y-51310000D02*
X76630000Y-57850000D01*
X76630000Y-57850000D02*
X79370000Y-57850000D01*
X78000000Y-50540000D02*
X78000000Y-51310000D01*
X78000000Y-58620000D02*
X78000000Y-57850000D01*
X79370000Y-51310000D02*
X76630000Y-51310000D01*
X79370000Y-57850000D02*
X79370000Y-51310000D01*
%TO.C,SW1*%
X133750000Y-26000000D02*
X133750000Y-30500000D01*
X136250000Y-31750000D02*
X137750000Y-31750000D01*
X137750000Y-24750000D02*
X136250000Y-24750000D01*
X140250000Y-30500000D02*
X140250000Y-26000000D01*
%TO.C,R13*%
X115380000Y-63750000D02*
X116150000Y-63750000D01*
X116150000Y-62380000D02*
X116150000Y-65120000D01*
X116150000Y-65120000D02*
X122690000Y-65120000D01*
X122690000Y-62380000D02*
X116150000Y-62380000D01*
X122690000Y-65120000D02*
X122690000Y-62380000D01*
X123460000Y-63750000D02*
X122690000Y-63750000D01*
%TO.C,R6*%
X81460000Y-20500000D02*
X82230000Y-20500000D01*
X82230000Y-19130000D02*
X82230000Y-21870000D01*
X82230000Y-21870000D02*
X88770000Y-21870000D01*
X88770000Y-19130000D02*
X82230000Y-19130000D01*
X88770000Y-21870000D02*
X88770000Y-19130000D01*
X89540000Y-20500000D02*
X88770000Y-20500000D01*
%TO.C,SW3*%
X85250000Y-55250000D02*
X85250000Y-59750000D01*
X87750000Y-61000000D02*
X89250000Y-61000000D01*
X89250000Y-54000000D02*
X87750000Y-54000000D01*
X91750000Y-59750000D02*
X91750000Y-55250000D01*
D13*
%TO.C,G\u002A\u002A\u002A*%
G36*
X127930607Y-21577176D02*
G01*
X127936500Y-21591062D01*
X127924707Y-21611051D01*
X127899634Y-21613678D01*
X127883583Y-21604291D01*
X127873412Y-21581636D01*
X127891322Y-21568485D01*
X127904750Y-21567250D01*
X127930607Y-21577176D01*
G37*
G36*
X129227655Y-22382027D02*
G01*
X129246241Y-22394299D01*
X129240517Y-22408915D01*
X129228922Y-22414899D01*
X129185790Y-22424274D01*
X129154087Y-22418312D01*
X129143000Y-22400687D01*
X129157153Y-22381755D01*
X129189688Y-22376875D01*
X129227655Y-22382027D01*
G37*
G36*
X127260590Y-27034910D02*
G01*
X127319565Y-27060716D01*
X127364714Y-27108383D01*
X127392298Y-27169667D01*
X127398576Y-27236323D01*
X127380404Y-27299004D01*
X127341119Y-27341478D01*
X127283516Y-27367165D01*
X127217478Y-27373863D01*
X127152888Y-27359368D01*
X127139180Y-27352754D01*
X127093937Y-27317544D01*
X127069995Y-27268811D01*
X127063375Y-27203360D01*
X127076457Y-27129410D01*
X127112814Y-27073711D01*
X127168106Y-27039968D01*
X127237996Y-27031885D01*
X127260590Y-27034910D01*
G37*
G36*
X128849613Y-27690901D02*
G01*
X128902807Y-27719755D01*
X128942812Y-27764324D01*
X128965624Y-27819441D01*
X128967240Y-27879941D01*
X128943657Y-27940657D01*
X128924718Y-27965604D01*
X128866792Y-28008916D01*
X128799468Y-28024858D01*
X128730686Y-28012262D01*
X128703333Y-27998217D01*
X128654963Y-27951402D01*
X128630054Y-27891918D01*
X128628166Y-27827822D01*
X128648854Y-27767166D01*
X128691677Y-27718008D01*
X128719668Y-27701001D01*
X128787232Y-27682928D01*
X128849613Y-27690901D01*
G37*
G36*
X130397850Y-27035064D02*
G01*
X130455722Y-27060068D01*
X130500340Y-27103169D01*
X130528434Y-27158192D01*
X130536738Y-27218961D01*
X130521982Y-27279301D01*
X130485754Y-27328637D01*
X130437836Y-27356623D01*
X130376165Y-27371350D01*
X130316331Y-27370002D01*
X130293937Y-27363304D01*
X130237872Y-27323815D01*
X130206391Y-27264529D01*
X130198687Y-27202487D01*
X130211309Y-27128089D01*
X130248076Y-27073198D01*
X130307345Y-27039922D01*
X130329992Y-27034332D01*
X130397850Y-27035064D01*
G37*
G36*
X131093735Y-25482747D02*
G01*
X131141102Y-25520327D01*
X131173066Y-25571400D01*
X131186431Y-25630101D01*
X131178000Y-25690562D01*
X131144577Y-25746915D01*
X131125617Y-25765230D01*
X131063952Y-25797795D01*
X130993482Y-25804818D01*
X130925592Y-25785261D01*
X130922747Y-25783721D01*
X130873931Y-25740953D01*
X130848096Y-25684830D01*
X130844222Y-25622782D01*
X130861290Y-25562239D01*
X130898281Y-25510633D01*
X130954174Y-25475394D01*
X130965581Y-25471536D01*
X131034162Y-25464527D01*
X131093735Y-25482747D01*
G37*
G36*
X126655242Y-25482348D02*
G01*
X126702420Y-25519623D01*
X126734850Y-25570783D01*
X126749081Y-25629976D01*
X126741659Y-25691347D01*
X126709135Y-25749044D01*
X126699471Y-25759471D01*
X126661613Y-25790313D01*
X126620650Y-25803640D01*
X126579187Y-25805875D01*
X126525676Y-25801468D01*
X126487101Y-25784110D01*
X126458903Y-25759471D01*
X126421096Y-25701883D01*
X126409655Y-25637435D01*
X126422682Y-25573728D01*
X126458279Y-25518367D01*
X126514548Y-25478954D01*
X126530449Y-25472867D01*
X126596768Y-25464812D01*
X126655242Y-25482348D01*
G37*
G36*
X127304013Y-23913559D02*
G01*
X127357737Y-23950208D01*
X127389127Y-24008713D01*
X127396750Y-24067562D01*
X127384065Y-24141513D01*
X127347416Y-24195237D01*
X127288911Y-24226627D01*
X127230062Y-24234250D01*
X127176551Y-24229843D01*
X127137976Y-24212485D01*
X127109778Y-24187846D01*
X127078936Y-24149988D01*
X127065609Y-24109025D01*
X127063375Y-24067562D01*
X127067781Y-24014051D01*
X127085139Y-23975476D01*
X127109778Y-23947278D01*
X127147636Y-23916436D01*
X127188599Y-23903109D01*
X127230062Y-23900875D01*
X127304013Y-23913559D01*
G37*
G36*
X128878022Y-23269041D02*
G01*
X128928196Y-23306159D01*
X128945753Y-23331677D01*
X128968015Y-23403581D01*
X128961486Y-23472393D01*
X128926894Y-23531835D01*
X128921971Y-23536971D01*
X128887218Y-23566332D01*
X128857757Y-23582366D01*
X128851832Y-23583375D01*
X128815488Y-23587383D01*
X128806954Y-23589425D01*
X128774324Y-23590849D01*
X128754724Y-23587624D01*
X128692191Y-23557714D01*
X128649493Y-23509162D01*
X128628073Y-23449204D01*
X128629371Y-23385074D01*
X128654829Y-23324010D01*
X128693852Y-23281998D01*
X128750935Y-23255005D01*
X128815630Y-23251338D01*
X128878022Y-23269041D01*
G37*
G36*
X123933948Y-26492906D02*
G01*
X123972523Y-26510264D01*
X124000721Y-26534903D01*
X124031563Y-26572761D01*
X124044890Y-26613724D01*
X124047125Y-26655187D01*
X124042718Y-26708698D01*
X124025360Y-26747273D01*
X124000721Y-26775471D01*
X123962863Y-26806313D01*
X123921900Y-26819640D01*
X123880437Y-26821875D01*
X123826926Y-26817468D01*
X123788351Y-26800110D01*
X123760153Y-26775471D01*
X123729311Y-26737613D01*
X123715984Y-26696650D01*
X123713750Y-26655187D01*
X123718156Y-26601676D01*
X123735514Y-26563101D01*
X123760153Y-26534903D01*
X123798011Y-26504061D01*
X123838974Y-26490734D01*
X123880437Y-26488500D01*
X123933948Y-26492906D01*
G37*
G36*
X130074955Y-20198288D02*
G01*
X130114026Y-20233706D01*
X130133320Y-20290767D01*
X130132821Y-20367861D01*
X130112513Y-20463379D01*
X130072379Y-20575709D01*
X130021158Y-20686187D01*
X129972884Y-20774079D01*
X129914231Y-20869930D01*
X129852725Y-20962042D01*
X129795890Y-21038716D01*
X129788481Y-21047861D01*
X129737801Y-21088665D01*
X129679429Y-21102942D01*
X129621511Y-21089504D01*
X129599401Y-21075406D01*
X129569340Y-21044877D01*
X129556351Y-21010592D01*
X129561381Y-20968173D01*
X129585377Y-20913241D01*
X129629286Y-20841416D01*
X129659650Y-20796874D01*
X129727633Y-20692414D01*
X129788058Y-20586178D01*
X129837839Y-20484532D01*
X129873889Y-20393843D01*
X129893121Y-20320479D01*
X129894134Y-20313287D01*
X129913872Y-20246301D01*
X129952419Y-20203381D01*
X130008029Y-20186344D01*
X130016125Y-20186125D01*
X130074955Y-20198288D01*
G37*
G36*
X127573633Y-20193003D02*
G01*
X127606890Y-20216749D01*
X127632673Y-20262026D01*
X127654657Y-20333497D01*
X127658709Y-20350429D01*
X127697891Y-20470697D01*
X127762053Y-20604256D01*
X127849331Y-20747443D01*
X127893879Y-20811587D01*
X127946927Y-20892172D01*
X127976984Y-20956243D01*
X127985197Y-21007915D01*
X127972708Y-21051301D01*
X127964229Y-21064515D01*
X127931597Y-21086910D01*
X127881852Y-21099222D01*
X127828632Y-21099265D01*
X127797593Y-21091244D01*
X127770203Y-21074847D01*
X127761875Y-21062754D01*
X127752260Y-21041957D01*
X127734093Y-21018485D01*
X127674094Y-20943452D01*
X127614408Y-20853844D01*
X127557487Y-20755058D01*
X127505782Y-20652489D01*
X127461746Y-20551532D01*
X127427831Y-20457582D01*
X127406490Y-20376036D01*
X127400174Y-20312288D01*
X127403064Y-20290126D01*
X127431478Y-20232639D01*
X127479182Y-20196369D01*
X127529227Y-20186125D01*
X127573633Y-20193003D01*
G37*
G36*
X128844435Y-20207133D02*
G01*
X128857250Y-20217875D01*
X128867108Y-20229303D01*
X128874682Y-20244053D01*
X128880270Y-20266114D01*
X128884167Y-20299477D01*
X128886669Y-20348134D01*
X128888072Y-20416073D01*
X128888672Y-20507287D01*
X128888766Y-20625766D01*
X128888756Y-20642531D01*
X128888235Y-20751638D01*
X128886897Y-20850516D01*
X128884875Y-20934636D01*
X128882299Y-20999469D01*
X128879302Y-21040486D01*
X128876850Y-21052904D01*
X128846008Y-21079571D01*
X128800955Y-21100269D01*
X128765184Y-21106875D01*
X128731665Y-21097398D01*
X128693437Y-21074546D01*
X128692703Y-21073972D01*
X128650875Y-21041070D01*
X128650875Y-20648115D01*
X128650942Y-20526474D01*
X128651376Y-20432573D01*
X128652520Y-20362398D01*
X128654720Y-20311939D01*
X128658319Y-20277184D01*
X128663664Y-20254121D01*
X128671098Y-20238740D01*
X128680966Y-20227028D01*
X128687616Y-20220642D01*
X128737260Y-20192520D01*
X128793484Y-20187953D01*
X128844435Y-20207133D01*
G37*
G36*
X129472481Y-23345378D02*
G01*
X129529948Y-23362408D01*
X129569736Y-23375519D01*
X129813180Y-23473646D01*
X130046232Y-23600927D01*
X130266185Y-23755708D01*
X130439732Y-23906618D01*
X130618253Y-24093571D01*
X130769240Y-24288146D01*
X130887886Y-24479336D01*
X130926656Y-24554097D01*
X130966615Y-24639356D01*
X131005228Y-24728731D01*
X131039963Y-24815845D01*
X131068287Y-24894317D01*
X131087664Y-24957769D01*
X131095563Y-24999819D01*
X131095625Y-25002417D01*
X131081973Y-25069811D01*
X131045515Y-25122543D01*
X130992997Y-25157558D01*
X130931166Y-25171802D01*
X130866768Y-25162220D01*
X130812238Y-25130740D01*
X130770538Y-25079114D01*
X130734515Y-24998450D01*
X130729587Y-24983896D01*
X130640539Y-24762049D01*
X130523695Y-24551579D01*
X130381842Y-24355340D01*
X130217769Y-24176189D01*
X130034265Y-24016981D01*
X129834118Y-23880574D01*
X129620118Y-23769822D01*
X129495794Y-23720261D01*
X129433248Y-23697003D01*
X129376908Y-23674463D01*
X129338217Y-23657234D01*
X129336166Y-23656191D01*
X129287927Y-23615672D01*
X129261737Y-23560783D01*
X129256743Y-23499141D01*
X129272090Y-23438365D01*
X129306925Y-23386073D01*
X129360394Y-23349883D01*
X129370927Y-23345995D01*
X129401127Y-23338383D01*
X129432259Y-23337773D01*
X129472481Y-23345378D01*
G37*
G36*
X130044723Y-24328791D02*
G01*
X130093292Y-24375327D01*
X130121959Y-24439465D01*
X130127250Y-24485692D01*
X130127250Y-24558228D01*
X129735770Y-24950856D01*
X129344291Y-25343483D01*
X129374614Y-25419898D01*
X129391613Y-25475305D01*
X129401157Y-25541292D01*
X129404496Y-25627349D01*
X129404531Y-25647125D01*
X129403314Y-25721784D01*
X129398635Y-25775924D01*
X129388234Y-25820753D01*
X129369854Y-25867481D01*
X129352847Y-25903582D01*
X129286848Y-26009117D01*
X129200516Y-26101088D01*
X129101163Y-26172572D01*
X129035790Y-26203738D01*
X128955187Y-26226378D01*
X128860120Y-26240634D01*
X128763363Y-26245511D01*
X128677690Y-26240012D01*
X128646841Y-26234059D01*
X128525273Y-26188459D01*
X128416391Y-26118235D01*
X128324286Y-26027920D01*
X128253049Y-25922045D01*
X128206769Y-25805142D01*
X128192595Y-25730825D01*
X128191652Y-25671102D01*
X128536888Y-25671102D01*
X128558022Y-25741625D01*
X128597151Y-25804038D01*
X128651118Y-25854212D01*
X128716767Y-25888015D01*
X128790943Y-25901321D01*
X128870491Y-25889998D01*
X128928363Y-25864821D01*
X128996170Y-25810022D01*
X129040236Y-25739940D01*
X129060005Y-25660984D01*
X129054924Y-25579561D01*
X129024437Y-25502078D01*
X128967988Y-25434943D01*
X128965756Y-25433045D01*
X128888570Y-25386777D01*
X128805858Y-25370099D01*
X128722852Y-25382728D01*
X128644779Y-25424381D01*
X128613005Y-25452160D01*
X128561224Y-25522240D01*
X128536903Y-25596597D01*
X128536888Y-25671102D01*
X128191652Y-25671102D01*
X128190318Y-25586597D01*
X128215492Y-25453057D01*
X128265493Y-25332842D01*
X128337694Y-25228591D01*
X128429470Y-25142942D01*
X128538194Y-25078533D01*
X128661243Y-25038004D01*
X128795989Y-25023991D01*
X128889598Y-25030488D01*
X128950847Y-25042008D01*
X129006848Y-25057759D01*
X129034253Y-25068917D01*
X129083277Y-25094268D01*
X129474295Y-24706176D01*
X129600656Y-24581791D01*
X129705647Y-24480685D01*
X129789378Y-24402755D01*
X129851960Y-24347903D01*
X129893502Y-24316025D01*
X129910567Y-24307213D01*
X129981924Y-24304529D01*
X130044723Y-24328791D01*
G37*
G36*
X128918611Y-17930421D02*
G01*
X129118304Y-17969421D01*
X129306599Y-18033301D01*
X129479475Y-18120143D01*
X129632911Y-18228029D01*
X129727795Y-18316299D01*
X129795161Y-18386982D01*
X129962779Y-18379527D01*
X130163317Y-18385745D01*
X130354843Y-18421821D01*
X130535258Y-18486625D01*
X130702463Y-18579028D01*
X130854360Y-18697899D01*
X130988850Y-18842109D01*
X131089289Y-18986027D01*
X131132670Y-19065083D01*
X131175429Y-19155721D01*
X131209807Y-19241200D01*
X131216194Y-19259837D01*
X131235010Y-19320180D01*
X131247885Y-19371504D01*
X131255929Y-19422571D01*
X131260254Y-19482141D01*
X131261972Y-19558977D01*
X131262217Y-19622562D01*
X131261434Y-19721792D01*
X131257921Y-19799126D01*
X131250074Y-19864399D01*
X131236290Y-19927446D01*
X131214966Y-19998101D01*
X131188472Y-20075000D01*
X131124281Y-20216531D01*
X131034226Y-20357092D01*
X130923656Y-20489898D01*
X130797922Y-20608166D01*
X130722562Y-20665742D01*
X130611437Y-20743801D01*
X130603458Y-21635744D01*
X130601683Y-21833194D01*
X130599997Y-22001587D01*
X130598144Y-22143617D01*
X130595869Y-22261975D01*
X130592914Y-22359353D01*
X130589026Y-22438443D01*
X130583947Y-22501938D01*
X130577423Y-22552529D01*
X130569197Y-22592909D01*
X130559013Y-22625769D01*
X130546617Y-22653802D01*
X130531751Y-22679699D01*
X130514161Y-22706154D01*
X130499796Y-22726870D01*
X130453632Y-22779494D01*
X130392981Y-22830160D01*
X130328501Y-22871158D01*
X130270851Y-22894781D01*
X130266156Y-22895834D01*
X130234673Y-22905344D01*
X130222769Y-22914640D01*
X130235785Y-22926470D01*
X130270013Y-22948829D01*
X130318636Y-22977329D01*
X130329925Y-22983621D01*
X130388451Y-23016463D01*
X130441729Y-23047227D01*
X130478803Y-23069582D01*
X130480444Y-23070627D01*
X130524076Y-23098574D01*
X130663006Y-22961599D01*
X130739311Y-22888573D01*
X130800880Y-22836239D01*
X130853754Y-22801278D01*
X130903971Y-22780371D01*
X130957570Y-22770200D01*
X131016250Y-22767462D01*
X131072565Y-22769554D01*
X131122302Y-22778456D01*
X131170079Y-22797003D01*
X131220516Y-22828027D01*
X131278233Y-22874362D01*
X131347849Y-22938840D01*
X131432346Y-23022640D01*
X131513609Y-23106485D01*
X131574039Y-23174234D01*
X131616579Y-23230830D01*
X131644176Y-23281216D01*
X131659773Y-23330334D01*
X131666317Y-23383128D01*
X131667125Y-23416687D01*
X131663291Y-23481622D01*
X131649571Y-23538890D01*
X131622637Y-23594559D01*
X131579161Y-23654699D01*
X131515816Y-23725376D01*
X131474752Y-23767469D01*
X131331292Y-23911876D01*
X131397509Y-24013532D01*
X131498893Y-24187168D01*
X131593446Y-24384190D01*
X131677915Y-24596433D01*
X131749049Y-24815736D01*
X131803119Y-25031669D01*
X131825926Y-25167582D01*
X131842718Y-25325326D01*
X131853202Y-25495506D01*
X131857086Y-25668722D01*
X131854078Y-25835578D01*
X131843886Y-25986675D01*
X131835081Y-26059875D01*
X131774805Y-26368411D01*
X131685492Y-26665307D01*
X131568209Y-26949008D01*
X131424024Y-27217961D01*
X131254005Y-27470615D01*
X131059219Y-27705415D01*
X130840733Y-27920810D01*
X130599615Y-28115245D01*
X130336933Y-28287168D01*
X130282575Y-28318338D01*
X130040584Y-28438275D01*
X129779735Y-28538540D01*
X129507967Y-28616492D01*
X129233216Y-28669491D01*
X129222375Y-28671041D01*
X129124569Y-28681269D01*
X129004980Y-28688249D01*
X128872215Y-28691972D01*
X128734882Y-28692429D01*
X128601593Y-28689614D01*
X128480954Y-28683516D01*
X128381575Y-28674129D01*
X128365125Y-28671873D01*
X128062975Y-28612134D01*
X127770870Y-28523703D01*
X127490751Y-28408003D01*
X127224558Y-28266461D01*
X126974232Y-28100501D01*
X126741714Y-27911549D01*
X126528945Y-27701030D01*
X126337866Y-27470369D01*
X126170417Y-27220990D01*
X126029830Y-26957076D01*
X125966472Y-26821875D01*
X125204015Y-26821875D01*
X124441557Y-26821875D01*
X124395153Y-26775471D01*
X124364311Y-26737613D01*
X124350984Y-26696650D01*
X124348749Y-26655187D01*
X124353156Y-26601676D01*
X124370514Y-26563101D01*
X124395153Y-26534903D01*
X124441557Y-26488500D01*
X125141278Y-26488500D01*
X125316611Y-26488159D01*
X125469339Y-26487159D01*
X125597948Y-26485532D01*
X125700928Y-26483312D01*
X125776766Y-26480532D01*
X125823950Y-26477224D01*
X125840967Y-26473422D01*
X125841000Y-26473239D01*
X125837590Y-26451689D01*
X125828496Y-26407406D01*
X125815424Y-26348536D01*
X125809899Y-26324597D01*
X125792522Y-26241876D01*
X125775314Y-26146439D01*
X125761644Y-26057159D01*
X125760197Y-26046170D01*
X125741596Y-25901125D01*
X125219009Y-25901125D01*
X125066067Y-25900919D01*
X124941648Y-25900037D01*
X124842529Y-25898077D01*
X124765486Y-25894638D01*
X124707292Y-25889320D01*
X124664725Y-25881721D01*
X124634558Y-25871442D01*
X124613569Y-25858081D01*
X124598531Y-25841238D01*
X124587345Y-25822629D01*
X124573819Y-25774942D01*
X124572200Y-25715398D01*
X124581642Y-25658489D01*
X124592313Y-25635741D01*
X126088091Y-25635741D01*
X126089299Y-25756182D01*
X126093024Y-25868984D01*
X126099264Y-25966307D01*
X126108016Y-26040311D01*
X126108650Y-26044000D01*
X126176380Y-26343793D01*
X126270954Y-26627369D01*
X126391900Y-26893990D01*
X126538748Y-27142921D01*
X126711026Y-27373427D01*
X126908262Y-27584771D01*
X127129986Y-27776219D01*
X127294123Y-27894408D01*
X127547017Y-28044845D01*
X127810541Y-28165503D01*
X128083713Y-28256152D01*
X128365549Y-28316563D01*
X128655069Y-28346505D01*
X128951288Y-28345749D01*
X129150937Y-28328207D01*
X129403271Y-28283108D01*
X129657899Y-28209852D01*
X129908496Y-28110841D01*
X130148737Y-27988475D01*
X130310561Y-27888056D01*
X130542296Y-27713782D01*
X130750723Y-27519590D01*
X130935263Y-27307631D01*
X131095336Y-27080055D01*
X131230363Y-26839014D01*
X131339763Y-26586657D01*
X131422956Y-26325136D01*
X131479364Y-26056602D01*
X131508406Y-25783205D01*
X131509502Y-25507097D01*
X131482073Y-25230427D01*
X131425539Y-24955347D01*
X131339321Y-24684007D01*
X131237716Y-24448562D01*
X131098246Y-24198524D01*
X130933237Y-23965351D01*
X130745015Y-23750868D01*
X130535905Y-23556903D01*
X130308234Y-23385283D01*
X130188537Y-23312922D01*
X130802809Y-23312922D01*
X130960945Y-23471713D01*
X131119081Y-23630505D01*
X131218478Y-23531992D01*
X131263039Y-23486049D01*
X131297267Y-23447376D01*
X131315933Y-23422029D01*
X131317875Y-23416832D01*
X131307185Y-23400049D01*
X131277909Y-23365777D01*
X131234234Y-23318649D01*
X131180349Y-23263297D01*
X131166979Y-23249916D01*
X131016083Y-23099648D01*
X130909446Y-23206285D01*
X130802809Y-23312922D01*
X130188537Y-23312922D01*
X130064329Y-23237834D01*
X129806514Y-23116383D01*
X129537116Y-23022758D01*
X129367858Y-22980040D01*
X129097515Y-22936486D01*
X128820769Y-22920678D01*
X128543003Y-22932245D01*
X128269601Y-22970813D01*
X128005948Y-23036010D01*
X127864178Y-23084158D01*
X127595308Y-23201972D01*
X127341614Y-23346990D01*
X127104971Y-23517590D01*
X126887254Y-23712148D01*
X126690338Y-23929038D01*
X126516099Y-24166636D01*
X126408091Y-24345375D01*
X126333496Y-24496174D01*
X126263162Y-24669707D01*
X126200121Y-24856980D01*
X126147405Y-25049002D01*
X126108461Y-25234375D01*
X126099584Y-25306977D01*
X126093231Y-25403299D01*
X126089401Y-25515500D01*
X126088091Y-25635741D01*
X124592313Y-25635741D01*
X124599134Y-25621201D01*
X124615199Y-25602784D01*
X124632725Y-25587952D01*
X124655134Y-25576317D01*
X124685847Y-25567493D01*
X124728286Y-25561091D01*
X124785873Y-25556726D01*
X124862029Y-25554009D01*
X124960177Y-25552553D01*
X125083737Y-25551971D01*
X125211630Y-25551875D01*
X125727347Y-25551875D01*
X125736901Y-25444718D01*
X125743483Y-25380802D01*
X125753161Y-25298841D01*
X125764319Y-25212189D01*
X125770005Y-25170875D01*
X125779688Y-25101277D01*
X125787421Y-25043658D01*
X125792275Y-25005076D01*
X125793466Y-24992850D01*
X125778023Y-24990788D01*
X125733520Y-24988703D01*
X125662647Y-24986641D01*
X125568095Y-24984643D01*
X125452554Y-24982752D01*
X125318713Y-24981012D01*
X125169262Y-24979466D01*
X125006893Y-24978157D01*
X124834294Y-24977128D01*
X124802219Y-24976975D01*
X123811064Y-24972437D01*
X123762407Y-24925811D01*
X123731448Y-24890669D01*
X123717195Y-24854311D01*
X123713750Y-24801674D01*
X123713750Y-24801558D01*
X123717463Y-24747838D01*
X123732388Y-24710217D01*
X123760153Y-24677528D01*
X123806557Y-24631125D01*
X124853020Y-24631125D01*
X125899483Y-24631125D01*
X125943593Y-24516031D01*
X125969230Y-24454508D01*
X126004938Y-24375900D01*
X126045672Y-24291042D01*
X126080348Y-24222343D01*
X126172995Y-24043750D01*
X125545834Y-24043750D01*
X125379027Y-24043624D01*
X125241027Y-24043040D01*
X125128890Y-24041683D01*
X125039672Y-24039239D01*
X124970430Y-24035394D01*
X124918220Y-24029834D01*
X124880099Y-24022246D01*
X124853124Y-24012316D01*
X124834352Y-23999730D01*
X124820837Y-23984175D01*
X124809639Y-23965335D01*
X124809595Y-23965254D01*
X124792106Y-23901765D01*
X124798824Y-23832203D01*
X124828013Y-23768798D01*
X124839557Y-23754281D01*
X124885864Y-23702437D01*
X125458529Y-23697897D01*
X126031193Y-23693356D01*
X125992842Y-23634397D01*
X125945496Y-23534798D01*
X125926371Y-23428838D01*
X125927586Y-23415275D01*
X126279756Y-23415275D01*
X126289171Y-23438630D01*
X126315098Y-23472589D01*
X126360817Y-23522326D01*
X126366560Y-23528321D01*
X126410345Y-23573668D01*
X126444700Y-23608775D01*
X126464573Y-23628502D01*
X126467481Y-23631000D01*
X126478889Y-23620424D01*
X126508643Y-23591370D01*
X126552675Y-23547848D01*
X126606918Y-23493865D01*
X126628319Y-23472485D01*
X126786833Y-23313970D01*
X126679004Y-23206967D01*
X126571174Y-23099963D01*
X126435182Y-23234513D01*
X126380634Y-23289515D01*
X126333726Y-23338735D01*
X126299585Y-23376666D01*
X126283577Y-23397352D01*
X126279756Y-23415275D01*
X125927586Y-23415275D01*
X125935861Y-23322919D01*
X125968366Y-23234497D01*
X125992461Y-23199983D01*
X126035295Y-23149803D01*
X126091639Y-23089115D01*
X126156265Y-23023077D01*
X126223946Y-22956847D01*
X126289453Y-22895582D01*
X126347557Y-22844441D01*
X126393031Y-22808582D01*
X126412500Y-22796331D01*
X126482905Y-22774021D01*
X126567844Y-22766618D01*
X126653918Y-22773936D01*
X126727725Y-22795788D01*
X126737937Y-22800853D01*
X126775473Y-22826366D01*
X126827065Y-22868615D01*
X126885116Y-22921115D01*
X126928065Y-22963059D01*
X126979533Y-23014093D01*
X127023293Y-23055490D01*
X127054385Y-23082686D01*
X127067399Y-23091250D01*
X127085480Y-23083509D01*
X127124370Y-23062590D01*
X127177834Y-23031945D01*
X127223500Y-23004804D01*
X127366894Y-22918358D01*
X127298478Y-22899952D01*
X127245446Y-22883351D01*
X127198522Y-22864926D01*
X127189248Y-22860460D01*
X127138604Y-22824927D01*
X127082552Y-22771254D01*
X127030491Y-22709385D01*
X126994696Y-22654687D01*
X126987432Y-22640755D01*
X126981252Y-22626099D01*
X126976055Y-22608147D01*
X126971739Y-22584328D01*
X126968202Y-22552072D01*
X126967027Y-22534288D01*
X127206250Y-22534288D01*
X127267291Y-22598456D01*
X127328333Y-22662625D01*
X128769347Y-22662625D01*
X130210360Y-22662625D01*
X130271992Y-22600992D01*
X130333625Y-22539360D01*
X130333625Y-22275555D01*
X130333625Y-22011750D01*
X128769937Y-22011750D01*
X127206250Y-22011750D01*
X127206250Y-22273019D01*
X127206250Y-22534288D01*
X126967027Y-22534288D01*
X126965344Y-22508807D01*
X126963062Y-22451963D01*
X126961256Y-22378967D01*
X126959823Y-22287250D01*
X126959677Y-22273019D01*
X126958663Y-22174241D01*
X126957673Y-22037367D01*
X126956752Y-21874059D01*
X126955799Y-21681745D01*
X126955731Y-21667709D01*
X126951275Y-20744230D01*
X126864832Y-20695445D01*
X126735705Y-20606237D01*
X126614935Y-20491317D01*
X126506809Y-20356462D01*
X126415612Y-20207447D01*
X126345630Y-20050050D01*
X126316118Y-19955937D01*
X126279861Y-19758896D01*
X126278547Y-19712811D01*
X126526715Y-19712811D01*
X126553934Y-19884112D01*
X126583149Y-19979750D01*
X126645574Y-20111272D01*
X126733453Y-20239091D01*
X126840647Y-20356385D01*
X126961012Y-20456333D01*
X127074176Y-20525138D01*
X127107812Y-20541863D01*
X127135202Y-20556985D01*
X127156988Y-20573763D01*
X127173807Y-20595454D01*
X127186302Y-20625317D01*
X127195110Y-20666610D01*
X127200872Y-20722592D01*
X127204228Y-20796521D01*
X127205817Y-20891654D01*
X127206280Y-21011251D01*
X127206257Y-21158570D01*
X127206250Y-21197719D01*
X127206250Y-21757750D01*
X128769937Y-21757750D01*
X130333625Y-21757750D01*
X130333625Y-21217490D01*
X130333675Y-21060372D01*
X130334254Y-20931763D01*
X130336002Y-20828422D01*
X130339562Y-20747108D01*
X130345573Y-20684579D01*
X130354678Y-20637594D01*
X130367518Y-20602914D01*
X130384733Y-20577295D01*
X130406966Y-20557498D01*
X130434857Y-20540281D01*
X130469047Y-20522404D01*
X130471383Y-20521203D01*
X130622395Y-20426355D01*
X130752654Y-20308938D01*
X130859881Y-20171803D01*
X130941796Y-20017800D01*
X130990953Y-19871311D01*
X131007554Y-19774340D01*
X131014887Y-19660900D01*
X131012940Y-19544149D01*
X131001701Y-19437248D01*
X130991379Y-19386728D01*
X130935910Y-19229060D01*
X130854179Y-19081131D01*
X130750115Y-18947805D01*
X130627646Y-18833948D01*
X130490702Y-18744424D01*
X130460262Y-18729070D01*
X130390463Y-18699529D01*
X130313809Y-18673487D01*
X130235035Y-18651719D01*
X130158880Y-18635002D01*
X130090079Y-18624110D01*
X130033369Y-18619819D01*
X129993487Y-18622905D01*
X129975169Y-18634144D01*
X129979878Y-18650406D01*
X129999867Y-18685583D01*
X130025247Y-18742927D01*
X130052754Y-18814057D01*
X130079123Y-18890591D01*
X130098742Y-18955567D01*
X130116394Y-19039088D01*
X130128471Y-19136080D01*
X130132417Y-19207100D01*
X130133099Y-19275221D01*
X130130839Y-19319257D01*
X130124086Y-19346844D01*
X130111286Y-19365618D01*
X130097710Y-19377756D01*
X130042892Y-19404071D01*
X129983727Y-19403094D01*
X129936564Y-19379542D01*
X129917866Y-19359135D01*
X129904906Y-19329024D01*
X129895424Y-19281648D01*
X129887875Y-19216823D01*
X129878628Y-19141754D01*
X129866410Y-19067040D01*
X129853654Y-19007300D01*
X129851940Y-19000876D01*
X129789041Y-18830485D01*
X129699587Y-18672340D01*
X129586865Y-18530487D01*
X129454161Y-18408974D01*
X129304763Y-18311847D01*
X129283334Y-18300743D01*
X129177309Y-18250467D01*
X129086157Y-18215720D01*
X128998967Y-18193960D01*
X128904830Y-18182646D01*
X128792836Y-18179237D01*
X128762000Y-18179313D01*
X128673530Y-18180703D01*
X128606874Y-18184421D01*
X128552106Y-18191922D01*
X128499303Y-18204663D01*
X128438538Y-18224102D01*
X128424976Y-18228775D01*
X128245876Y-18306560D01*
X128087897Y-18407562D01*
X127952271Y-18530248D01*
X127840234Y-18673086D01*
X127753020Y-18834542D01*
X127691864Y-19013082D01*
X127661239Y-19177549D01*
X127647804Y-19269787D01*
X127631728Y-19334607D01*
X127610533Y-19376337D01*
X127581743Y-19399309D01*
X127542879Y-19407852D01*
X127529227Y-19408250D01*
X127470232Y-19393734D01*
X127425345Y-19353412D01*
X127402678Y-19302710D01*
X127398603Y-19251256D01*
X127404315Y-19177397D01*
X127418229Y-19088371D01*
X127438761Y-18991418D01*
X127464327Y-18893774D01*
X127493342Y-18802681D01*
X127524222Y-18725374D01*
X127533070Y-18707020D01*
X127551811Y-18663713D01*
X127559330Y-18632624D01*
X127556790Y-18623235D01*
X127533051Y-18620541D01*
X127486559Y-18623537D01*
X127425553Y-18631002D01*
X127358269Y-18641720D01*
X127292944Y-18654471D01*
X127237817Y-18668037D01*
X127222818Y-18672633D01*
X127068206Y-18737085D01*
X126932458Y-18821307D01*
X126849561Y-18892312D01*
X126784910Y-18957364D01*
X126737465Y-19009562D01*
X126700980Y-19057458D01*
X126669210Y-19109604D01*
X126635912Y-19174552D01*
X126621286Y-19204939D01*
X126560645Y-19368066D01*
X126529036Y-19539076D01*
X126526715Y-19712811D01*
X126278547Y-19712811D01*
X126274285Y-19563311D01*
X126298592Y-19372036D01*
X126351985Y-19187928D01*
X126433664Y-19013843D01*
X126542832Y-18852637D01*
X126660242Y-18724424D01*
X126816227Y-18596204D01*
X126984327Y-18497262D01*
X127163801Y-18427876D01*
X127353911Y-18388327D01*
X127553914Y-18378894D01*
X127572457Y-18379536D01*
X127744785Y-18386636D01*
X127820798Y-18308574D01*
X127957367Y-18189999D01*
X128114980Y-18090605D01*
X128288028Y-18012325D01*
X128470899Y-17957092D01*
X128657982Y-17926838D01*
X128843666Y-17923497D01*
X128918611Y-17930421D01*
G37*
%TO.C,U1*%
D10*
X79400000Y-29350000D02*
X119900000Y-29350000D01*
X119900000Y-45350000D01*
X79400000Y-45350000D01*
X79400000Y-29350000D01*
D12*
%TO.C,J3*%
X67410000Y-75170000D02*
X67410000Y-82910000D01*
X67410000Y-75170000D02*
X76040000Y-75170000D01*
X67410000Y-75290000D02*
X76040000Y-75290000D01*
X67410000Y-75408095D02*
X76040000Y-75408095D01*
X67410000Y-75526190D02*
X76040000Y-75526190D01*
X67410000Y-75644285D02*
X76040000Y-75644285D01*
X67410000Y-75762380D02*
X76040000Y-75762380D01*
X67410000Y-75880475D02*
X76040000Y-75880475D01*
X67410000Y-75998570D02*
X76040000Y-75998570D01*
X67410000Y-76116665D02*
X76040000Y-76116665D01*
X67410000Y-76234760D02*
X76040000Y-76234760D01*
X67410000Y-76352855D02*
X76040000Y-76352855D01*
X67410000Y-76470950D02*
X76040000Y-76470950D01*
X67410000Y-76589045D02*
X76040000Y-76589045D01*
X67410000Y-76707140D02*
X76040000Y-76707140D01*
X67410000Y-76825235D02*
X76040000Y-76825235D01*
X67410000Y-76943330D02*
X76040000Y-76943330D01*
X67410000Y-77061425D02*
X76040000Y-77061425D01*
X67410000Y-77179520D02*
X76040000Y-77179520D01*
X67410000Y-77297615D02*
X76040000Y-77297615D01*
X67410000Y-77415710D02*
X76040000Y-77415710D01*
X67410000Y-77533805D02*
X76040000Y-77533805D01*
X67410000Y-77651900D02*
X76040000Y-77651900D01*
X67410000Y-77770000D02*
X76040000Y-77770000D01*
X67410000Y-80310000D02*
X76040000Y-80310000D01*
X67410000Y-82910000D02*
X76040000Y-82910000D01*
X76040000Y-75170000D02*
X76040000Y-82910000D01*
X76040000Y-76140000D02*
X76390000Y-76140000D01*
X76040000Y-76860000D02*
X76390000Y-76860000D01*
X76040000Y-78680000D02*
X76450000Y-78680000D01*
X76040000Y-79400000D02*
X76450000Y-79400000D01*
X76040000Y-81220000D02*
X76450000Y-81220000D01*
X76040000Y-81940000D02*
X76450000Y-81940000D01*
X77500000Y-75170000D02*
X78610000Y-75170000D01*
X78610000Y-75170000D02*
X78610000Y-76500000D01*
%TO.C,SW4*%
X108250000Y-55250000D02*
X108250000Y-59750000D01*
X110750000Y-61000000D02*
X112250000Y-61000000D01*
X112250000Y-54000000D02*
X110750000Y-54000000D01*
X114750000Y-59750000D02*
X114750000Y-55250000D01*
%TO.C,R11*%
X96460000Y-20750000D02*
X97230000Y-20750000D01*
X97230000Y-19380000D02*
X97230000Y-22120000D01*
X97230000Y-22120000D02*
X103770000Y-22120000D01*
X103770000Y-19380000D02*
X97230000Y-19380000D01*
X103770000Y-22120000D02*
X103770000Y-19380000D01*
X104540000Y-20750000D02*
X103770000Y-20750000D01*
%TO.C,R10*%
X111210000Y-20750000D02*
X111980000Y-20750000D01*
X111980000Y-19380000D02*
X111980000Y-22120000D01*
X111980000Y-22120000D02*
X118520000Y-22120000D01*
X118520000Y-19380000D02*
X111980000Y-19380000D01*
X118520000Y-22120000D02*
X118520000Y-19380000D01*
X119290000Y-20750000D02*
X118520000Y-20750000D01*
%TO.C,SW2*%
X133750000Y-46000000D02*
X133750000Y-50500000D01*
X136250000Y-51750000D02*
X137750000Y-51750000D01*
X137750000Y-44750000D02*
X136250000Y-44750000D01*
X140250000Y-50500000D02*
X140250000Y-46000000D01*
%TO.C,R4*%
X80130000Y-51480000D02*
X80130000Y-58020000D01*
X80130000Y-58020000D02*
X82870000Y-58020000D01*
X81500000Y-50710000D02*
X81500000Y-51480000D01*
X81500000Y-58790000D02*
X81500000Y-58020000D01*
X82870000Y-51480000D02*
X80130000Y-51480000D01*
X82870000Y-58020000D02*
X82870000Y-51480000D01*
%TO.C,R8*%
X88790000Y-49500000D02*
X89560000Y-49500000D01*
X89560000Y-48130000D02*
X89560000Y-50870000D01*
X89560000Y-50870000D02*
X96100000Y-50870000D01*
X96100000Y-48130000D02*
X89560000Y-48130000D01*
X96100000Y-50870000D02*
X96100000Y-48130000D01*
X96870000Y-49500000D02*
X96100000Y-49500000D01*
%TO.C,R14*%
X130380000Y-50230000D02*
X130380000Y-56770000D01*
X130380000Y-56770000D02*
X133120000Y-56770000D01*
X131750000Y-49460000D02*
X131750000Y-50230000D01*
X131750000Y-57540000D02*
X131750000Y-56770000D01*
X133120000Y-50230000D02*
X130380000Y-50230000D01*
X133120000Y-56770000D02*
X133120000Y-50230000D01*
%TO.C,R12*%
X74130000Y-35560000D02*
X74130000Y-42100000D01*
X74130000Y-42100000D02*
X76870000Y-42100000D01*
X75500000Y-34790000D02*
X75500000Y-35560000D01*
X75500000Y-42870000D02*
X75500000Y-42100000D01*
X76870000Y-35560000D02*
X74130000Y-35560000D01*
X76870000Y-42100000D02*
X76870000Y-35560000D01*
%TO.C,R9*%
X94380000Y-54560000D02*
X94380000Y-61100000D01*
X94380000Y-61100000D02*
X97120000Y-61100000D01*
X95750000Y-53790000D02*
X95750000Y-54560000D01*
X95750000Y-61870000D02*
X95750000Y-61100000D01*
X97120000Y-54560000D02*
X94380000Y-54560000D01*
X97120000Y-61100000D02*
X97120000Y-54560000D01*
%TD*%
M02*
