%TF.GenerationSoftware,KiCad,Pcbnew,8.0.6*%
%TF.CreationDate,2025-01-14T21:11:08+01:00*%
%TF.ProjectId,kitchen_timer,6b697463-6865-46e5-9f74-696d65722e6b,1*%
%TF.SameCoordinates,Original*%
%TF.FileFunction,Soldermask,Top*%
%TF.FilePolarity,Negative*%
%FSLAX46Y46*%
G04 Gerber Fmt 4.6, Leading zero omitted, Abs format (unit mm)*
G04 Created by KiCad (PCBNEW 8.0.6) date 2025-01-14 21:11:08*
%MOMM*%
%LPD*%
G01*
G04 APERTURE LIST*
%ADD10R,2.000000X2.000000*%
%ADD11C,1.600000*%
%ADD12O,1.600000X1.600000*%
%ADD13C,2.000000*%
%ADD14C,0.700000*%
%ADD15C,4.400000*%
%ADD16O,1.750000X2.500000*%
%ADD17C,1.700000*%
%ADD18R,1.700000X1.700000*%
%ADD19O,1.700000X1.700000*%
%ADD20O,1.800000X1.800000*%
%ADD21O,1.500000X1.500000*%
%ADD22R,1.500000X1.050000*%
%ADD23O,1.500000X1.050000*%
%ADD24O,2.500000X1.750000*%
%ADD25O,2.500000X2.000000*%
%ADD26R,2.500000X1.750000*%
%ADD27C,1.500000*%
%ADD28R,1.500000X1.500000*%
%ADD29O,1.600000X2.400000*%
%ADD30R,1.600000X2.400000*%
G04 APERTURE END LIST*
D10*
%TO.C,TP1*%
X105500000Y-66750000D03*
%TD*%
D11*
%TO.C,R1*%
X78420000Y-23750000D03*
D12*
X88580000Y-23750000D03*
%TD*%
D11*
%TO.C,R5*%
X78000000Y-49500000D03*
D12*
X78000000Y-59660000D03*
%TD*%
D13*
%TO.C,SW1*%
X134750000Y-31500000D03*
X134750000Y-25000000D03*
X139250000Y-31500000D03*
X139250000Y-25000000D03*
%TD*%
D14*
%TO.C,H1*%
X72350000Y-91750000D03*
X72833274Y-90583274D03*
X72833274Y-92916726D03*
X74000000Y-90100000D03*
D15*
X74000000Y-91750000D03*
D14*
X74000000Y-93400000D03*
X75166726Y-90583274D03*
X75166726Y-92916726D03*
X75650000Y-91750000D03*
%TD*%
D11*
%TO.C,R13*%
X124500000Y-63750000D03*
D12*
X114340000Y-63750000D03*
%TD*%
D11*
%TO.C,R6*%
X80420000Y-20500000D03*
D12*
X90580000Y-20500000D03*
%TD*%
D13*
%TO.C,SW3*%
X86250000Y-60750000D03*
X86250000Y-54250000D03*
X90750000Y-60750000D03*
X90750000Y-54250000D03*
%TD*%
D14*
%TO.C,H2*%
X137350000Y-91750000D03*
X137833274Y-90583274D03*
X137833274Y-92916726D03*
X139000000Y-90100000D03*
D15*
X139000000Y-91750000D03*
D14*
X139000000Y-93400000D03*
X140166726Y-90583274D03*
X140166726Y-92916726D03*
X140650000Y-91750000D03*
%TD*%
D16*
%TO.C,U1*%
X93300000Y-43700000D03*
X95840000Y-43700000D03*
X98380000Y-43700000D03*
X100920000Y-43700000D03*
X103460000Y-43700000D03*
X106000000Y-43700000D03*
X106000000Y-31000000D03*
X103460000Y-31000000D03*
X100920000Y-31000000D03*
X98380000Y-31000000D03*
X95840000Y-31000000D03*
X93300000Y-31000000D03*
%TD*%
D17*
%TO.C,J3*%
X77500000Y-76500000D03*
D18*
X77500000Y-79040000D03*
D19*
X77500000Y-81580000D03*
%TD*%
D13*
%TO.C,SW4*%
X109250000Y-60750000D03*
X109250000Y-54250000D03*
X113750000Y-60750000D03*
X113750000Y-54250000D03*
%TD*%
D11*
%TO.C,R11*%
X95420000Y-20750000D03*
D12*
X105580000Y-20750000D03*
%TD*%
D14*
%TO.C,H3*%
X137350000Y-20750000D03*
X137833274Y-19583274D03*
X137833274Y-21916726D03*
X139000000Y-19100000D03*
D15*
X139000000Y-20750000D03*
D14*
X139000000Y-22400000D03*
X140166726Y-19583274D03*
X140166726Y-21916726D03*
X140650000Y-20750000D03*
%TD*%
D11*
%TO.C,R10*%
X110170000Y-20750000D03*
D12*
X120330000Y-20750000D03*
%TD*%
D13*
%TO.C,SW2*%
X134750000Y-51500000D03*
X134750000Y-45000000D03*
X139250000Y-51500000D03*
X139250000Y-45000000D03*
%TD*%
D11*
%TO.C,R4*%
X81500000Y-59830000D03*
D12*
X81500000Y-49670000D03*
%TD*%
D11*
%TO.C,R8*%
X87750000Y-49500000D03*
D12*
X97910000Y-49500000D03*
%TD*%
D11*
%TO.C,R14*%
X131750000Y-58580000D03*
D12*
X131750000Y-48420000D03*
%TD*%
D14*
%TO.C,H4*%
X72350000Y-20750000D03*
X72833274Y-19583274D03*
X72833274Y-21916726D03*
X74000000Y-19100000D03*
D15*
X74000000Y-20750000D03*
D14*
X74000000Y-22400000D03*
X75166726Y-19583274D03*
X75166726Y-21916726D03*
X75650000Y-20750000D03*
%TD*%
D11*
%TO.C,R12*%
X75500000Y-33750000D03*
D12*
X75500000Y-43910000D03*
%TD*%
D11*
%TO.C,R9*%
X95750000Y-52750000D03*
D12*
X95750000Y-62910000D03*
%TD*%
D18*
%TO.C,J2*%
X124170000Y-92000000D03*
D19*
X126710000Y-92000000D03*
X129250000Y-92000000D03*
%TD*%
D20*
%TO.C,U2*%
X129000000Y-81725000D03*
D21*
X125970000Y-81425000D03*
X125970000Y-76575000D03*
D20*
X129000000Y-76275000D03*
D19*
X129130000Y-87890000D03*
X126590000Y-87890000D03*
D18*
X124050000Y-87890000D03*
D19*
X121510000Y-87890000D03*
X118970000Y-87890000D03*
X116430000Y-87890000D03*
X113890000Y-87890000D03*
D18*
X111350000Y-87890000D03*
D19*
X108810000Y-87890000D03*
X106270000Y-87890000D03*
X103730000Y-87890000D03*
X101190000Y-87890000D03*
D18*
X98650000Y-87890000D03*
D19*
X96110000Y-87890000D03*
X93570000Y-87890000D03*
X91030000Y-87890000D03*
X88490000Y-87890000D03*
D18*
X85950000Y-87890000D03*
D19*
X83410000Y-87890000D03*
X80870000Y-87890000D03*
X80870000Y-70110000D03*
X83410000Y-70110000D03*
D18*
X85950000Y-70110000D03*
D19*
X88490000Y-70110000D03*
X91030000Y-70110000D03*
X93570000Y-70110000D03*
X96110000Y-70110000D03*
D18*
X98650000Y-70110000D03*
D19*
X101190000Y-70110000D03*
X103730000Y-70110000D03*
X106270000Y-70110000D03*
X108810000Y-70110000D03*
D18*
X111350000Y-70110000D03*
D19*
X113890000Y-70110000D03*
X116430000Y-70110000D03*
X118970000Y-70110000D03*
X121510000Y-70110000D03*
D18*
X124050000Y-70110000D03*
D19*
X126590000Y-70110000D03*
X129130000Y-70110000D03*
X81100000Y-81540000D03*
D18*
X81100000Y-79000000D03*
D19*
X81100000Y-76460000D03*
%TD*%
D22*
%TO.C,Q3*%
X98140000Y-27270000D03*
D23*
X98140000Y-25500000D03*
X98140000Y-23770000D03*
%TD*%
D11*
%TO.C,R2*%
X81500000Y-43810000D03*
D12*
X81500000Y-33650000D03*
%TD*%
D24*
%TO.C,LS1*%
X118500000Y-40000000D03*
X125250000Y-40000000D03*
D25*
X122000000Y-45000000D03*
X122000000Y-35000000D03*
%TD*%
D22*
%TO.C,Q1*%
X75500000Y-26000000D03*
D23*
X75500000Y-27770000D03*
X75500000Y-29500000D03*
%TD*%
D22*
%TO.C,Q2*%
X91500000Y-27270000D03*
D23*
X91500000Y-25500000D03*
X91500000Y-23770000D03*
%TD*%
D24*
%TO.C,J1*%
X125750000Y-56750000D03*
D26*
X125750000Y-54250000D03*
%TD*%
D11*
%TO.C,R3*%
X85500000Y-43810000D03*
D12*
X85500000Y-33650000D03*
%TD*%
D27*
%TO.C,Q5*%
X127250000Y-62750000D03*
X129790000Y-62750000D03*
D28*
X132330000Y-62750000D03*
%TD*%
D22*
%TO.C,Q4*%
X101500000Y-54000000D03*
D23*
X101500000Y-55770000D03*
X101500000Y-57500000D03*
%TD*%
D29*
%TO.C,SW5*%
X138775000Y-70500000D03*
X136235000Y-70500000D03*
D30*
X136235000Y-62880000D03*
X138775000Y-62880000D03*
%TD*%
D11*
%TO.C,R7*%
X88690000Y-40000000D03*
D12*
X98850000Y-40000000D03*
%TD*%
M02*
